<svg version="1.1" id="Layer_1" xmlns="http://www.w3.org/2000/svg" xmlns:xlink="http://www.w3.org/1999/xlink" x="0px" y="0px"
	 width="100%" viewBox="0 0 192 192" enable-background="new 0 0 192 192" xml:space="preserve">
<path fill="#FDFDFE" opacity="1.000000" stroke="none" 
	d="
M193.000000,77.000000 
	C193.000000,115.974922 193.000000,154.449844 193.000000,192.962387 
	C129.066772,192.962387 65.133530,192.962387 1.100137,192.962387 
	C1.100137,129.108582 1.100137,65.216949 1.100137,1.162662 
	C64.999664,1.162662 128.999802,1.162662 193.000000,1.162662 
	C193.000000,26.199533 193.000000,51.349766 193.000000,77.000000 
M46.757568,167.053726 
	C46.757568,167.053726 46.581966,167.458725 46.887714,168.026764 
	C48.930347,169.674240 50.972980,171.321701 53.455929,173.480911 
	C68.197777,184.996979 85.098938,188.405258 103.129654,185.469604 
	C124.948174,181.917267 142.260361,169.666611 157.815765,154.736984 
	C159.386063,153.229858 159.438507,150.141251 160.195343,147.786575 
	C159.822266,147.609375 159.449173,147.432175 159.076080,147.254974 
	C157.835541,148.234329 156.594986,149.213684 154.679398,149.800797 
	C154.368164,149.388824 154.056931,148.976837 154.027466,147.971741 
	C156.005936,145.774384 157.984390,143.577011 160.132858,141.190842 
	C162.977264,144.404129 165.525421,147.282730 168.073578,150.161346 
	C168.534668,149.957779 168.995743,149.754227 169.456818,149.550659 
	C167.555511,133.910431 165.654205,118.270203 163.726028,102.408920 
	C163.071320,102.830528 162.694962,102.937866 162.570007,103.176727 
	C162.031052,104.206947 161.566574,105.276093 161.073547,106.330383 
	C153.029953,123.530945 142.996765,139.330032 128.527725,151.924149 
	C114.589622,164.056152 98.658890,171.079910 79.834610,170.082565 
	C65.803032,169.339142 53.374729,164.022629 41.839512,156.286087 
	C40.193432,155.182098 38.328999,154.403687 36.565617,153.474579 
	C36.337620,153.819305 36.109619,154.164032 35.881618,154.508759 
	C38.954121,158.288544 42.026623,162.068344 45.154011,166.457062 
	C45.643074,166.795883 46.132141,167.134720 46.757568,167.053726 
M89.104652,48.271648 
	C87.136642,45.349663 85.168625,42.427681 82.997330,38.897224 
	C80.664131,36.934425 78.330925,34.971622 75.585175,32.452686 
	C72.463562,30.922647 69.341957,29.392609 65.655586,27.358181 
	C53.182499,23.576864 44.924736,23.098000 39.555870,25.788815 
	C41.661827,28.232948 43.783218,30.694998 46.024731,33.822952 
	C47.002769,35.572536 47.980804,37.322121 49.044380,39.716946 
	C49.700241,40.811043 50.356102,41.905144 51.100086,43.667591 
	C52.494774,45.565201 53.889462,47.462811 55.533985,49.973335 
	C56.774811,51.132393 58.015636,52.291451 59.510044,54.062977 
	C61.058983,55.181850 62.607925,56.300724 64.708519,57.923790 
	C68.440193,59.381809 72.171875,60.839828 76.359314,62.819031 
	C78.953888,64.000061 81.548462,65.181091 84.546898,66.956970 
	C86.746269,70.310387 88.945641,73.663811 91.192024,77.827515 
	C91.517860,80.887970 91.843697,83.948425 92.035873,87.908386 
	C92.076157,90.942078 92.116440,93.975769 91.954468,97.732285 
	C91.029831,100.491486 90.105202,103.250687 88.609001,106.444450 
	C84.491287,108.038727 80.373566,109.633011 75.996788,111.327599 
	C75.996788,112.429596 75.996788,114.215233 75.800232,116.799759 
	C74.710556,117.833817 73.759346,119.481705 72.500473,119.765686 
	C70.323174,120.256836 67.955009,119.901924 65.535843,119.901924 
	C65.535843,122.129501 65.535843,123.805611 65.535843,125.993996 
	C69.871643,125.993996 73.790878,125.993996 78.241432,125.993996 
	C78.241432,130.233414 78.241432,133.966217 78.241432,138.031097 
	C97.248978,138.031097 115.702980,138.087723 134.154602,137.904526 
	C135.393082,137.892242 136.613556,136.066498 137.842407,135.084183 
	C136.489182,134.236771 135.150024,132.682236 133.780487,132.655014 
	C123.796494,132.456421 113.805893,132.511536 103.818474,132.604004 
	C100.090332,132.638519 99.583046,131.086044 101.115898,127.840645 
	C114.672150,127.840645 128.150986,127.944862 141.623672,127.704735 
	C143.251907,127.675705 144.847000,125.786133 146.457443,124.758873 
	C144.852280,123.858330 143.273758,122.240952 141.637375,122.180092 
	C134.156601,121.901840 126.655586,121.913834 119.170044,122.119637 
	C115.078598,122.232124 114.243538,120.669029 115.645340,116.901756 
	C126.557350,116.901756 137.360580,116.928299 148.163452,116.879585 
	C150.349075,116.869728 153.529358,117.659744 153.286911,114.164627 
	C153.218842,113.183479 149.852264,111.741539 147.967239,111.691353 
	C137.985687,111.425575 127.993095,111.612358 118.006386,111.483330 
	C113.244774,111.421806 108.524078,110.901222 104.733620,106.482521 
	C104.098129,105.658058 103.462646,104.833595 102.692574,103.307678 
	C101.868279,100.843658 101.043991,98.379646 100.252914,95.078110 
	C99.778885,92.055450 99.304855,89.032791 98.978302,85.205841 
	C99.638756,81.806160 100.299210,78.406479 101.349594,74.393631 
	C102.971672,71.401970 104.593750,68.410316 106.801819,65.050438 
	C108.488068,63.730450 110.022316,62.117680 111.890350,61.147831 
	C116.641960,58.680882 121.542877,56.501492 127.057381,54.104279 
	C130.609314,51.404255 134.161255,48.704227 138.284317,45.603146 
	C139.881210,43.411221 141.478119,41.219296 143.625549,38.607124 
	C144.609482,36.441502 145.593430,34.275883 146.928726,31.573467 
	C147.524307,29.718784 148.119873,27.864101 148.990829,25.259384 
	C149.285660,23.176165 149.580505,21.092947 150.051025,18.114731 
	C150.051025,15.115269 150.051025,12.115806 150.051025,9.339719 
	C143.851273,11.457239 138.077469,12.932753 132.746277,15.374606 
	C125.934273,18.494715 119.479393,22.394491 112.258247,26.203362 
	C109.856873,29.140205 107.455498,32.077049 104.540657,35.490856 
	C103.479996,37.950897 102.419327,40.410938 101.022591,43.467331 
	C100.292503,46.969135 99.562416,50.470940 98.585800,54.563942 
	C98.108612,58.044121 97.631416,61.524303 96.977715,65.769775 
	C96.557693,67.786140 96.137665,69.802513 95.717636,71.818878 
	C95.329018,71.831429 94.940392,71.843971 94.551765,71.856522 
	C93.984177,68.908493 93.416588,65.960472 92.934708,62.227779 
	C92.534370,60.157505 92.134026,58.087234 91.760773,55.308178 
	C90.859367,53.205120 89.957962,51.102062 89.104652,48.271648 
M107.844635,142.191315 
	C106.571678,143.011154 105.298729,143.830994 104.025772,144.650833 
	C105.257202,145.347488 106.463295,146.586258 107.724541,146.645233 
	C112.702019,146.877945 117.699219,146.646469 122.684341,146.773697 
	C125.919785,146.856277 126.948662,145.675171 125.522316,142.191101 
	C120.017326,142.191101 114.394730,142.191101 107.844635,142.191315 
M47.377132,125.054848 
	C49.393356,126.063118 51.409576,127.071396 54.027626,128.380630 
	C54.027626,124.621483 54.027626,122.519867 54.027626,120.249344 
	C51.855824,120.249344 49.924736,120.249344 47.713322,120.249344 
	C47.590652,121.687775 47.481480,122.967949 47.377132,125.054848 
M91.524498,146.712234 
	C93.535034,146.006027 97.298241,145.233398 97.274399,144.604294 
	C97.107574,140.201889 93.394089,143.003387 91.316956,142.198135 
	C91.174568,142.142914 90.964142,142.134399 90.832596,142.199539 
	C89.234863,142.990662 87.646019,143.799713 86.054863,144.604111 
	C87.584846,145.306717 89.114822,146.009323 91.524498,146.712234 
M76.494644,147.310699 
	C76.152145,142.393860 75.572601,142.107407 69.461258,143.831390 
	C69.461258,145.722275 69.461258,147.613174 69.461258,150.769409 
	C72.226730,149.730347 74.344780,148.934555 76.494644,147.310699 
M61.454685,133.585907 
	C60.545994,128.252136 56.858936,132.130707 54.417778,130.963120 
	C54.417778,133.552628 54.417778,135.591171 54.417778,138.076065 
	C57.209602,136.988129 61.603771,140.443359 61.454685,133.585907 
M72.392723,135.881821 
	C73.163361,133.788422 73.933998,131.695007 74.847359,129.213898 
	C71.585388,129.213898 69.588493,129.213898 67.382248,129.213898 
	C67.488594,132.591141 65.632263,136.649017 72.392723,135.881821 
M88.042953,154.191620 
	C88.727188,149.155106 85.812065,149.773987 82.224068,150.568115 
	C82.329536,152.330811 82.421585,153.869232 82.543732,155.910767 
	C84.685966,155.540405 86.246841,155.270538 88.042953,154.191620 
M45.076099,112.897987 
	C43.617474,112.320747 42.158852,111.743500 39.966057,110.875710 
	C40.086796,113.560204 40.156403,115.107780 40.224182,116.614754 
	C43.066765,117.066734 45.529312,117.601677 45.076099,112.897987 
M59.403709,116.041374 
	C60.134857,114.442886 60.866005,112.844398 61.816261,110.766884 
	C59.141468,110.766884 57.634350,110.766884 56.127232,110.766884 
	C55.759247,111.203789 55.391262,111.640694 55.023277,112.077606 
	C56.187050,113.404007 57.350819,114.730415 59.403709,116.041374 
M69.676903,156.447861 
	C71.280945,157.121918 72.884987,157.795959 75.182755,158.761536 
	C75.023148,156.035187 74.941307,154.637161 74.859467,153.239120 
	C74.448433,152.853149 74.037407,152.467194 73.626381,152.081223 
	C72.300171,153.222961 70.973969,154.364716 69.676903,156.447861 
z"/>
<path fill="#2C296E" opacity="1.000000" stroke="none" 
	d="
M45.099129,165.848129 
	C42.026623,162.068344 38.954121,158.288544 35.881618,154.508759 
	C36.109619,154.164032 36.337620,153.819305 36.565617,153.474579 
	C38.328999,154.403687 40.193432,155.182098 41.839512,156.286087 
	C53.374729,164.022629 65.803032,169.339142 79.834610,170.082565 
	C98.658890,171.079910 114.589622,164.056152 128.527725,151.924149 
	C142.996765,139.330032 153.029953,123.530945 161.073547,106.330383 
	C161.566574,105.276093 162.031052,104.206947 162.570007,103.176727 
	C162.694962,102.937866 163.071320,102.830528 163.726028,102.408920 
	C165.654205,118.270203 167.555511,133.910431 169.456818,149.550659 
	C168.995743,149.754227 168.534668,149.957779 168.073578,150.161346 
	C165.525421,147.282730 162.977264,144.404129 160.132858,141.190842 
	C157.984390,143.577011 156.005936,145.774384 153.585663,148.424103 
	C142.439453,160.214447 130.182510,169.423859 115.608032,175.997833 
	C111.322014,177.575745 107.415840,179.132385 103.079056,180.843140 
	C95.078972,181.121979 87.254288,182.511459 80.005112,181.048737 
	C71.100082,179.251907 62.675644,175.073242 53.830948,171.668732 
	C51.272945,170.095093 48.927456,168.776917 46.581966,167.458725 
	C46.581966,167.458725 46.757568,167.053726 46.716011,166.936829 
	C46.149349,166.495987 45.624237,166.172058 45.099129,165.848129 
z"/>
<path fill="#2D4485" opacity="1.000000" stroke="none" 
	d="
M104.981377,107.077652 
	C108.524078,110.901222 113.244774,111.421806 118.006386,111.483330 
	C127.993095,111.612358 137.985687,111.425575 147.967239,111.691353 
	C149.852264,111.741539 153.218842,113.183479 153.286911,114.164627 
	C153.529358,117.659744 150.349075,116.869728 148.163452,116.879585 
	C137.360580,116.928299 126.557350,116.901756 115.645340,116.901756 
	C114.243538,120.669029 115.078598,122.232124 119.170044,122.119637 
	C126.655586,121.913834 134.156601,121.901840 141.637375,122.180092 
	C143.273758,122.240952 144.852280,123.858330 146.457443,124.758873 
	C144.847000,125.786133 143.251907,127.675705 141.623672,127.704735 
	C128.150986,127.944862 114.672150,127.840645 101.115898,127.840645 
	C99.583046,131.086044 100.090332,132.638519 103.818474,132.604004 
	C113.805893,132.511536 123.796494,132.456421 133.780487,132.655014 
	C135.150024,132.682236 136.489182,134.236771 137.842407,135.084183 
	C136.613556,136.066498 135.393082,137.892242 134.154602,137.904526 
	C115.702980,138.087723 97.248978,138.031097 78.241432,138.031097 
	C78.241432,133.966217 78.241432,130.233414 78.241432,125.993996 
	C73.790878,125.993996 69.871643,125.993996 65.535843,125.993996 
	C65.535843,123.805611 65.535843,122.129501 65.535843,119.901924 
	C67.955009,119.901924 70.323174,120.256836 72.500473,119.765686 
	C73.759346,119.481705 74.710556,117.833817 76.313690,116.398682 
	C85.026100,114.005653 93.248596,112.102287 101.400673,109.934158 
	C102.751900,109.574791 103.795578,108.059021 104.981377,107.077652 
M99.793755,121.972755 
	C102.003632,123.104645 104.468651,124.487274 105.522827,120.929604 
	C105.787804,120.035324 104.340996,117.824501 103.288712,117.503242 
	C100.311066,116.594208 99.012787,118.182632 99.793755,121.972755 
M85.271904,130.267044 
	C86.880966,131.059692 88.490036,131.852325 90.099106,132.644974 
	C90.610107,131.241684 91.121109,129.838394 91.632103,128.435104 
	C91.220619,128.065125 90.809143,127.695137 90.397659,127.325150 
	C88.697060,128.042572 86.996468,128.759995 85.271904,130.267044 
M86.581024,122.543694 
	C87.940750,122.036804 89.557693,121.813217 90.555344,120.907501 
	C91.080513,120.430702 90.929077,118.118134 90.370453,117.766396 
	C89.228661,117.047462 87.605255,117.093430 85.759155,116.744881 
	C85.880295,119.001770 85.958199,120.453239 86.581024,122.543694 
z"/>
<path fill="#171717" opacity="1.000000" stroke="none" 
	d="
M54.043457,171.924179 
	C62.675644,175.073242 71.100082,179.251907 80.005112,181.048737 
	C87.254288,182.511459 95.078972,181.121979 103.447296,180.973175 
	C108.634644,179.703827 113.023155,178.458588 117.761993,177.163696 
	C132.576660,170.976715 144.865646,161.830048 155.354446,150.193024 
	C156.594986,149.213684 157.835541,148.234329 159.076080,147.254974 
	C159.449173,147.432175 159.822266,147.609375 160.195343,147.786575 
	C159.438507,150.141251 159.386063,153.229858 157.815765,154.736984 
	C142.260361,169.666611 124.948174,181.917267 103.129654,185.469604 
	C85.098938,188.405258 68.197777,184.996979 53.342297,172.994415 
	C53.500259,172.313339 53.771858,172.118759 54.043457,171.924179 
z"/>
<path fill="#47A9DB" opacity="1.000000" stroke="none" 
	d="
M112.870598,25.958248 
	C119.479393,22.394491 125.934273,18.494715 132.746277,15.374606 
	C138.077469,12.932753 143.851273,11.457239 150.051025,9.339719 
	C150.051025,12.115806 150.051025,15.115269 149.553787,18.559383 
	C147.777145,19.141264 146.387894,19.005154 145.238907,19.466909 
	C141.776596,20.858353 138.407761,22.482410 134.932281,23.649059 
	C133.439804,23.071936 131.958649,22.496103 130.605408,22.714178 
	C124.673592,23.670103 118.778816,24.855856 112.870598,25.958248 
z"/>
<path fill="#43A0D5" opacity="1.000000" stroke="none" 
	d="
M112.564423,26.080803 
	C118.778816,24.855856 124.673592,23.670103 130.605408,22.714178 
	C131.958649,22.496103 133.439804,23.071936 134.894867,23.988716 
	C133.952591,26.130352 132.977509,27.565634 131.642685,29.040154 
	C128.188965,30.718321 125.095001,32.357254 121.929932,33.631020 
	C120.426918,33.065025 118.945946,32.526665 117.572289,32.726395 
	C113.377388,33.336357 109.223785,34.230389 105.054123,35.013893 
	C107.455498,32.077049 109.856873,29.140205 112.564423,26.080803 
z"/>
<path fill="#3C8AC2" opacity="1.000000" stroke="none" 
	d="
M143.075012,39.027370 
	C141.478119,41.219296 139.881210,43.411221 137.580475,45.803566 
	C129.348160,47.593517 121.839386,49.288849 114.276886,50.695358 
	C112.472466,51.030952 110.488739,50.402531 108.725662,49.942917 
	C111.114235,47.181190 113.364624,44.694046 115.809998,42.567940 
	C117.206284,43.039391 118.476761,43.459381 119.597397,43.208920 
	C125.878227,41.805149 132.104721,40.155876 138.393372,38.791302 
	C139.867432,38.471443 141.509979,38.928009 143.075012,39.027370 
z"/>
<path fill="#2C478A" opacity="1.000000" stroke="none" 
	d="
M104.857498,106.780090 
	C103.795578,108.059021 102.751900,109.574791 101.400673,109.934158 
	C93.248596,112.102287 85.026100,114.005653 76.411972,115.999237 
	C75.996788,114.215233 75.996788,112.429596 75.996788,111.327599 
	C80.373566,109.633011 84.491287,108.038727 89.312241,106.226624 
	C94.286041,105.342239 98.556602,104.675682 102.827164,104.009125 
	C103.462646,104.833595 104.098129,105.658058 104.857498,106.780090 
z"/>
<path fill="#3C79B3" opacity="1.000000" stroke="none" 
	d="
M106.215836,65.418663 
	C104.593750,68.410316 102.971672,71.401970 100.746933,74.699127 
	C97.144516,75.675491 94.144760,76.346359 91.145012,77.017227 
	C88.945641,73.663811 86.746269,70.310387 84.715141,66.527664 
	C85.923042,65.395729 86.962700,64.693092 88.298798,64.016739 
	C89.397827,63.695385 90.200417,63.347744 91.310684,63.001114 
	C92.028580,63.005562 92.438782,63.009003 92.848991,63.012447 
	C93.416588,65.960472 93.984177,68.908493 94.551765,71.856522 
	C94.940392,71.843971 95.329018,71.831429 95.717636,71.818878 
	C96.137665,69.802513 96.557693,67.786140 97.463394,65.374741 
	C100.704666,65.126022 103.460251,65.272339 106.215836,65.418663 
z"/>
<path fill="#4EB7E7" opacity="1.000000" stroke="none" 
	d="
M45.904613,33.157047 
	C43.783218,30.694998 41.661827,28.232948 39.555870,25.788815 
	C44.924736,23.098000 53.182499,23.576864 65.602097,27.782318 
	C63.749352,29.915628 60.005547,30.101181 60.671455,34.005959 
	C59.890884,34.006207 59.444839,34.004520 58.800655,33.729008 
	C54.455479,29.709997 50.228500,29.369814 45.904613,33.157047 
z"/>
<path fill="#3F92C8" opacity="1.000000" stroke="none" 
	d="
M143.350281,38.817245 
	C141.509979,38.928009 139.867432,38.471443 138.393372,38.791302 
	C132.104721,40.155876 125.878227,41.805149 119.597397,43.208920 
	C118.476761,43.459381 117.206284,43.039391 115.963493,42.343979 
	C116.362701,41.174931 116.803413,40.590878 117.513855,39.979103 
	C118.194908,39.639069 118.606216,39.326756 119.290878,38.884972 
	C120.380104,38.169567 121.195984,37.583637 122.422935,36.997169 
	C123.969955,36.800369 125.113113,36.638527 126.240669,36.402210 
	C133.021561,34.981045 139.798859,33.542789 146.577362,32.110260 
	C145.593430,34.275883 144.609482,36.441502 143.350281,38.817245 
z"/>
<path fill="#3B80B9" opacity="1.000000" stroke="none" 
	d="
M106.508827,65.234550 
	C103.460251,65.272339 100.704666,65.126022 97.551651,64.992096 
	C97.631416,61.524303 98.108612,58.044121 99.167015,54.275909 
	C100.661209,54.024120 101.574181,54.060364 102.254105,54.386055 
	C101.289078,56.265240 100.557114,57.854988 99.825150,59.444733 
	C100.525581,60.021412 101.226013,60.598087 101.926445,61.174767 
	C102.606636,59.780125 103.286835,58.385487 104.385139,56.992786 
	C110.113770,55.863117 115.399933,54.587997 120.748428,53.680134 
	C122.545380,53.375122 124.500954,54.004627 126.384026,54.207001 
	C121.542877,56.501492 116.641960,58.680882 111.890350,61.147831 
	C110.022316,62.117680 108.488068,63.730450 106.508827,65.234550 
z"/>
<path fill="#3C84BD" opacity="1.000000" stroke="none" 
	d="
M126.720703,54.155640 
	C124.500954,54.004627 122.545380,53.375122 120.748428,53.680134 
	C115.399933,54.587997 110.113770,55.863117 104.474922,56.667439 
	C105.626892,54.299267 107.107185,52.258385 108.587486,50.217499 
	C110.488739,50.402531 112.472466,51.030952 114.276886,50.695358 
	C121.839386,49.288849 129.348160,47.593517 137.294891,46.004093 
	C134.161255,48.704227 130.609314,51.404255 126.720703,54.155640 
z"/>
<path fill="#4097CD" opacity="1.000000" stroke="none" 
	d="
M146.753052,31.841862 
	C139.798859,33.542789 133.021561,34.981045 126.240669,36.402210 
	C125.113113,36.638527 123.969955,36.800369 122.421799,36.662666 
	C122.004486,35.882568 121.999397,35.436428 121.996094,34.741760 
	C121.997887,34.493237 122.001038,33.996185 122.001038,33.996185 
	C125.095001,32.357254 128.188965,30.718321 132.055206,29.038666 
	C138.123474,28.001766 143.419464,27.005592 148.715454,26.009418 
	C148.119873,27.864101 147.524307,29.718784 146.753052,31.841862 
z"/>
<path fill="#4299CE" opacity="1.000000" stroke="none" 
	d="
M121.929932,33.631020 
	C122.001038,33.996185 121.997887,34.493237 121.713066,34.642921 
	C120.624672,36.199883 119.821098,37.607162 119.017525,39.014442 
	C118.606216,39.326756 118.194908,39.639069 117.336861,39.658173 
	C114.651215,40.594585 112.412308,41.824203 109.812279,42.907570 
	C106.753654,42.797867 104.056160,42.834423 101.358658,42.870975 
	C102.419327,40.410938 103.479996,37.950897 104.797386,35.252373 
	C109.223785,34.230389 113.377388,33.336357 117.572289,32.726395 
	C118.945946,32.526665 120.426918,33.065025 121.929932,33.631020 
z"/>
<path fill="#E3E2E7" opacity="1.000000" stroke="none" 
	d="
M155.016922,149.996918 
	C144.865646,161.830048 132.576660,170.976715 117.467010,177.027130 
	C116.543755,176.619003 116.265816,176.297791 115.987885,175.976562 
	C130.182510,169.423859 142.439453,160.214447 153.444794,148.720657 
	C154.056931,148.976837 154.368164,149.388824 155.016922,149.996918 
z"/>
<path fill="#429FD4" opacity="1.000000" stroke="none" 
	d="
M55.284153,49.360420 
	C53.889462,47.462811 52.494774,45.565201 51.466019,43.333225 
	C56.222015,41.997410 60.612076,40.995956 65.385536,39.995823 
	C66.535828,39.991444 67.302711,39.985744 68.376526,40.082577 
	C70.111137,41.459888 71.538826,42.734673 72.583824,44.053947 
	C66.562141,45.852436 60.923149,47.606430 55.284153,49.360420 
z"/>
<path fill="#4D6097" opacity="1.000000" stroke="none" 
	d="
M108.308388,142.191208 
	C114.394730,142.191101 120.017326,142.191101 125.522316,142.191101 
	C126.948662,145.675171 125.919785,146.856277 122.684341,146.773697 
	C117.699219,146.646469 112.702019,146.877945 107.724541,146.645233 
	C106.463295,146.586258 105.257202,145.347488 104.025772,144.650833 
	C105.298729,143.830994 106.571678,143.011154 108.308388,142.191208 
z"/>
<path fill="#3D8CC4" opacity="1.000000" stroke="none" 
	d="
M75.903549,62.297848 
	C72.171875,60.839828 68.440193,59.381809 64.844124,57.498413 
	C67.114021,56.296486 69.285744,55.608086 71.373360,54.721615 
	C74.128235,53.551800 76.817123,52.226608 79.790237,51.204323 
	C81.209869,52.972481 82.373634,54.504532 83.343857,56.406769 
	C80.734718,58.617256 78.319138,60.457550 75.903549,62.297848 
z"/>
<path fill="#409ED3" opacity="1.000000" stroke="none" 
	d="
M148.853149,25.634401 
	C143.419464,27.005592 138.123474,28.001766 132.414963,28.999428 
	C132.977509,27.565634 133.952591,26.130352 134.965057,24.355413 
	C138.407761,22.482410 141.776596,20.858353 145.238907,19.466909 
	C146.387894,19.005154 147.777145,19.141264 149.465942,19.006882 
	C149.580505,21.092947 149.285660,23.176165 148.853149,25.634401 
z"/>
<path fill="#3E85BD" opacity="1.000000" stroke="none" 
	d="
M76.131432,62.558441 
	C78.319138,60.457550 80.734718,58.617256 83.584717,56.652473 
	C85.280571,58.088032 86.542000,59.648075 87.934059,61.419319 
	C88.242775,61.270119 88.420860,60.909718 88.555977,60.233494 
	C88.326935,59.314369 88.140869,58.711063 88.100174,57.804787 
	C89.408257,57.006859 90.570969,56.511909 91.733688,56.016960 
	C92.134026,58.087234 92.534370,60.157505 92.891846,62.620113 
	C92.438782,63.009003 92.028580,63.005562 90.972862,63.002159 
	C89.552353,63.331619 88.777351,63.661037 88.002357,63.990456 
	C86.962700,64.693092 85.923042,65.395729 84.513214,66.230240 
	C81.548462,65.181091 78.953888,64.000061 76.131432,62.558441 
z"/>
<path fill="#4099CE" opacity="1.000000" stroke="none" 
	d="
M55.409069,49.666878 
	C60.923149,47.606430 66.562141,45.852436 72.870003,44.179375 
	C74.356087,45.188938 75.173302,46.117573 75.812393,47.363754 
	C70.174995,49.604370 64.715729,51.527435 59.256462,53.450504 
	C58.015636,52.291451 56.774811,51.132393 55.409069,49.666878 
z"/>
<path fill="#4093C9" opacity="1.000000" stroke="none" 
	d="
M59.383255,53.756741 
	C64.715729,51.527435 70.174995,49.604370 76.088058,47.503296 
	C77.539368,48.539597 78.536880,49.753906 79.534386,50.968216 
	C76.817123,52.226608 74.128235,53.551800 71.373360,54.721615 
	C69.285744,55.608086 67.114021,56.296486 64.568298,57.246315 
	C62.607925,56.300724 61.058983,55.181850 59.383255,53.756741 
z"/>
<path fill="#45A8DB" opacity="1.000000" stroke="none" 
	d="
M65.002136,39.994507 
	C60.612076,40.995956 56.222015,41.997410 51.421959,42.999050 
	C50.356102,41.905144 49.700241,40.811043 49.175247,39.068455 
	C52.537010,36.947590 55.767906,35.475212 58.998798,34.002838 
	C59.444839,34.004520 59.890884,34.006207 60.963516,34.151314 
	C62.717213,35.202255 63.844318,36.109772 64.981361,37.389175 
	C64.994911,38.505543 64.998520,39.250027 65.002136,39.994507 
z"/>
<path fill="#46ABDE" opacity="1.000000" stroke="none" 
	d="
M64.971420,37.017292 
	C63.844318,36.109772 62.717213,35.202255 61.298050,34.149384 
	C60.005547,30.101181 63.749352,29.915628 65.884476,28.034512 
	C69.341957,29.392609 72.463562,30.922647 75.635994,33.033981 
	C72.866837,37.117298 68.781944,36.635216 64.971420,37.017292 
z"/>
<path fill="#2F5091" opacity="1.000000" stroke="none" 
	d="
M102.759872,103.658401 
	C98.556602,104.675682 94.286041,105.342239 89.598022,106.009338 
	C90.105202,103.250687 91.029831,100.491486 92.468361,97.368637 
	C95.394737,96.641876 97.807213,96.278748 100.219696,95.915627 
	C101.043991,98.379646 101.868279,100.843658 102.759872,103.658401 
z"/>
<path fill="#48A4D7" opacity="1.000000" stroke="none" 
	d="
M64.981361,37.389175 
	C68.781944,36.635216 72.866837,37.117298 75.842270,33.312050 
	C78.330925,34.971622 80.664131,36.934425 82.908203,39.555733 
	C80.673149,41.230469 78.527206,42.246700 76.101929,43.118221 
	C70.884544,38.884552 70.884544,38.884552 68.069603,39.980049 
	C67.302711,39.985744 66.535828,39.991444 65.385536,39.995823 
	C64.998520,39.250027 64.994911,38.505543 64.981361,37.389175 
z"/>
<path fill="#3166A4" opacity="1.000000" stroke="none" 
	d="
M91.168518,77.422371 
	C94.144760,76.346359 97.144516,75.675491 100.551971,75.005707 
	C100.299210,78.406479 99.638756,81.806160 98.535019,85.657684 
	C96.117668,86.409317 94.143600,86.709099 92.169533,87.008881 
	C91.843697,83.948425 91.517860,80.887970 91.168518,77.422371 
z"/>
<path fill="#305A9A" opacity="1.000000" stroke="none" 
	d="
M92.102707,87.458633 
	C94.143600,86.709099 96.117668,86.409317 98.461288,86.059830 
	C99.304855,89.032791 99.778885,92.055450 100.236305,95.496872 
	C97.807213,96.278748 95.394737,96.641876 92.569489,97.007233 
	C92.116440,93.975769 92.076157,90.942078 92.102707,87.458633 
z"/>
<path fill="#4693C8" opacity="1.000000" stroke="none" 
	d="
M101.190628,43.169151 
	C104.056160,42.834423 106.753654,42.797867 109.621231,43.199623 
	C107.356590,47.124153 104.921875,50.610382 102.487160,54.096611 
	C101.574181,54.060364 100.661209,54.024120 99.290283,53.980309 
	C99.562416,50.470940 100.292503,46.969135 101.190628,43.169151 
z"/>
<path fill="#4299CE" opacity="1.000000" stroke="none" 
	d="
M76.381271,43.262928 
	C78.527206,42.246700 80.673149,41.230469 83.009850,39.859970 
	C85.168625,42.427681 87.136642,45.349663 88.694321,48.640480 
	C86.784012,49.809887 85.284035,50.610458 83.519531,51.193275 
	C80.963753,48.404655 78.672516,45.833790 76.381271,43.262928 
z"/>
<path fill="#47AFE1" opacity="1.000000" stroke="none" 
	d="
M58.800655,33.729012 
	C55.767906,35.475212 52.537010,36.947590 49.132477,38.745834 
	C47.980804,37.322121 47.002769,35.572536 45.964672,33.489998 
	C50.228500,29.369814 54.455479,29.709997 58.800655,33.729012 
z"/>
<path fill="#39508E" opacity="1.000000" stroke="none" 
	d="
M47.374718,124.651489 
	C47.481480,122.967949 47.590652,121.687775 47.713322,120.249344 
	C49.924736,120.249344 51.855824,120.249344 54.027626,120.249344 
	C54.027626,122.519867 54.027626,124.621483 54.027626,128.380630 
	C51.409576,127.071396 49.393356,126.063118 47.374718,124.651489 
z"/>
<path fill="#4D6097" opacity="1.000000" stroke="none" 
	d="
M91.084656,146.712082 
	C89.114822,146.009323 87.584846,145.306717 86.054855,144.604095 
	C87.646019,143.799713 89.234863,142.990662 90.832596,142.199539 
	C90.964142,142.134399 91.174568,142.142914 91.316956,142.198135 
	C93.394089,143.003387 97.107574,140.201889 97.274399,144.604294 
	C97.298241,145.233398 93.535034,146.006027 91.084656,146.712082 
z"/>
<path fill="#3D518E" opacity="1.000000" stroke="none" 
	d="
M76.478737,147.724731 
	C74.344780,148.934555 72.226730,149.730347 69.461258,150.769409 
	C69.461258,147.613174 69.461258,145.722275 69.454201,143.829391 
	C75.572601,142.107407 76.152145,142.393860 76.478737,147.724731 
z"/>
<path fill="#364B8A" opacity="1.000000" stroke="none" 
	d="
M61.456047,134.003555 
	C61.603771,140.443359 57.209602,136.988129 54.417778,138.076065 
	C54.417778,135.591171 54.417778,133.552628 54.417778,130.963120 
	C56.858936,132.130707 60.545994,128.252136 61.456047,134.003555 
z"/>
<path fill="#3D518E" opacity="1.000000" stroke="none" 
	d="
M71.949112,135.893692 
	C65.632263,136.649017 67.488594,132.591141 67.382248,129.213898 
	C69.588493,129.213898 71.585388,129.213898 74.847359,129.213898 
	C73.933998,131.695007 73.163361,133.788422 71.949112,135.893692 
z"/>
<path fill="#438EC4" opacity="1.000000" stroke="none" 
	d="
M83.784058,51.411030 
	C85.284035,50.610458 86.784012,49.809887 88.670273,49.004158 
	C89.957962,51.102062 90.859367,53.205120 91.747231,55.662567 
	C90.570969,56.511909 89.408257,57.006859 87.835144,57.596291 
	C86.211182,55.597523 84.997620,53.504276 83.784058,51.411030 
z"/>
<path fill="#495C95" opacity="1.000000" stroke="none" 
	d="
M87.925339,154.596146 
	C86.246841,155.270538 84.685966,155.540405 82.543732,155.910767 
	C82.421585,153.869232 82.329536,152.330811 82.224068,150.568115 
	C85.812065,149.773987 88.727188,149.155106 87.925339,154.596146 
z"/>
<path fill="#305A9A" opacity="1.000000" stroke="none" 
	d="
M45.094200,113.314697 
	C45.529312,117.601677 43.066765,117.066734 40.224182,116.614754 
	C40.156403,115.107780 40.086796,113.560204 39.966057,110.875710 
	C42.158852,111.743500 43.617474,112.320747 45.094200,113.314697 
z"/>
<path fill="#405E97" opacity="1.000000" stroke="none" 
	d="
M58.959152,116.049095 
	C57.350819,114.730415 56.187050,113.404007 55.023277,112.077606 
	C55.391262,111.640694 55.759247,111.203789 56.127232,110.766884 
	C57.634350,110.766884 59.141468,110.766884 61.816261,110.766884 
	C60.866005,112.844398 60.134857,114.442886 58.959152,116.049095 
z"/>
<path fill="#2D4485" opacity="1.000000" stroke="none" 
	d="
M69.662338,155.977158 
	C70.973969,154.364716 72.300171,153.222961 73.626381,152.081223 
	C74.037407,152.467194 74.448433,152.853149 74.859467,153.239120 
	C74.941307,154.637161 75.023148,156.035187 75.182755,158.761536 
	C72.884987,157.795959 71.280945,157.121918 69.662338,155.977158 
z"/>
<path fill="#333333" opacity="1.000000" stroke="none" 
	d="
M53.830948,171.668732 
	C53.771858,172.118759 53.500259,172.313339 53.122139,172.738556 
	C50.972980,171.321701 48.930347,169.674240 46.734840,167.742737 
	C48.927456,168.776917 51.272945,170.095093 53.830948,171.668732 
z"/>
<path fill="#333333" opacity="1.000000" stroke="none" 
	d="
M45.126572,166.152588 
	C45.624237,166.172058 46.149349,166.495987 46.647835,167.146729 
	C46.132141,167.134720 45.643074,166.795883 45.126572,166.152588 
z"/>
<path fill="#D0D0DA" opacity="1.000000" stroke="none" 
	d="
M115.608032,175.997833 
	C116.265816,176.297791 116.543755,176.619003 117.116676,177.076782 
	C113.023155,178.458588 108.634644,179.703827 103.877899,180.819046 
	C107.415840,179.132385 111.322014,177.575745 115.608032,175.997833 
z"/>
<path fill="#DFE2EC" opacity="1.000000" stroke="none" 
	d="
M99.679970,121.602592 
	C99.012787,118.182632 100.311066,116.594208 103.288712,117.503242 
	C104.340996,117.824501 105.787804,120.035324 105.522827,120.929604 
	C104.468651,124.487274 102.003632,123.104645 99.679970,121.602592 
z"/>
<path fill="#DFE2EC" opacity="1.000000" stroke="none" 
	d="
M85.283890,129.872223 
	C86.996468,128.759995 88.697060,128.042572 90.397659,127.325150 
	C90.809143,127.695137 91.220619,128.065125 91.632103,128.435104 
	C91.121109,129.838394 90.610107,131.241684 90.099106,132.644974 
	C88.490036,131.852325 86.880966,131.059692 85.283890,129.872223 
z"/>
<path fill="#DFE2EC" opacity="1.000000" stroke="none" 
	d="
M86.308563,122.224197 
	C85.958199,120.453239 85.880295,119.001770 85.759155,116.744881 
	C87.605255,117.093430 89.228661,117.047462 90.370453,117.766396 
	C90.929077,118.118134 91.080513,120.430702 90.555344,120.907501 
	C89.557693,121.813217 87.940750,122.036804 86.308563,122.224197 
z"/>
<path fill="#E3EEF6" opacity="1.000000" stroke="none" 
	d="
M102.254105,54.386055 
	C104.921875,50.610382 107.356590,47.124153 109.982353,43.345875 
	C112.412308,41.824203 114.651215,40.594585 117.067123,39.685894 
	C116.803413,40.590878 116.362701,41.174931 115.768509,41.982941 
	C113.364624,44.694046 111.114235,47.181190 108.725662,49.942921 
	C107.107185,52.258385 105.626892,54.299267 104.056808,56.665497 
	C103.286835,58.385487 102.606636,59.780125 101.926445,61.174767 
	C101.226013,60.598087 100.525581,60.021412 99.825150,59.444733 
	C100.557114,57.854988 101.289078,56.265240 102.254105,54.386055 
z"/>
<path fill="#438EC4" opacity="1.000000" stroke="none" 
	d="
M88.298798,64.016739 
	C88.777351,63.661037 89.552353,63.331619 90.665176,63.001152 
	C90.200417,63.347744 89.397827,63.695385 88.298798,64.016739 
z"/>
<path fill="#43A0D5" opacity="1.000000" stroke="none" 
	d="
M119.290878,38.884972 
	C119.821098,37.607162 120.624672,36.199883 121.711273,34.891445 
	C121.999397,35.436428 122.004486,35.882568 122.010727,36.663208 
	C121.195984,37.583637 120.380104,38.169567 119.290878,38.884972 
z"/>
<path fill="#E6F1F8" opacity="1.000000" stroke="none" 
	d="
M83.519531,51.193275 
	C84.997620,53.504276 86.211182,55.597523 87.689774,57.899261 
	C88.140869,58.711063 88.326935,59.314369 88.345551,60.384247 
	C88.053192,60.969921 87.928307,61.089024 87.803429,61.208122 
	C86.542000,59.648075 85.280571,58.088032 83.778267,56.282284 
	C82.373634,54.504532 81.209869,52.972481 79.790237,51.204323 
	C78.536880,49.753906 77.539368,48.539597 76.266190,47.185745 
	C75.173302,46.117573 74.356087,45.188938 73.252693,44.134880 
	C71.538826,42.734673 70.111137,41.459888 68.376526,40.082581 
	C70.884544,38.884552 70.884544,38.884552 76.101929,43.118221 
	C78.672516,45.833790 80.963753,48.404655 83.519531,51.193275 
z"/>
<path fill="#E6F1F8" opacity="1.000000" stroke="none" 
	d="
M88.388519,60.700066 
	C88.420860,60.909718 88.242775,61.270119 87.934059,61.419323 
	C87.928307,61.089024 88.053192,60.969921 88.388519,60.700066 
z"/>
</svg>