<svg version="1.1" id="Layer_1" xmlns="http://www.w3.org/2000/svg" xmlns:xlink="http://www.w3.org/1999/xlink" x="0px" y="0px"
	 width="100%" viewBox="0 0 512 512" enable-background="new 0 0 512 512" xml:space="preserve">
<path fill="#FFFFFF" opacity="1.000000" stroke="none" 
	d="
M513.000000,188.000000 
	C513.000000,296.640259 513.000000,404.780518 513.000000,512.960388 
	C342.401398,512.960388 171.802780,512.960388 1.102087,512.960388 
	C1.102087,342.443115 1.102087,171.886124 1.102087,1.164572 
	C171.666534,1.164572 342.333252,1.164572 513.000000,1.164572 
	C513.000000,63.197178 513.000000,125.348587 513.000000,188.000000 
M88.999504,405.676819 
	C89.308533,405.848999 89.617561,406.021179 89.896713,406.014465 
	C89.896713,406.014465 89.722511,406.064941 89.389282,406.701355 
	C89.899261,407.176544 90.409241,407.651733 90.933167,408.036407 
	C90.933167,408.036407 90.852196,408.079224 91.036049,408.759155 
	C103.953636,427.685242 119.623505,443.985229 137.579254,458.203552 
	C178.315552,490.460907 224.592773,501.084686 275.302826,492.796692 
	C298.835480,488.950531 320.848846,479.972382 341.868439,468.704865 
	C369.267639,454.017548 393.345734,434.841339 416.463684,414.241730 
	C424.422943,407.149536 424.563232,398.774628 423.662476,388.612915 
	C419.604156,392.751221 416.321899,396.482269 412.648315,399.776855 
	C398.072571,412.848877 384.126312,426.777191 368.564545,438.563110 
	C336.589569,462.779816 301.350342,480.138306 260.828125,485.196014 
	C243.016327,487.419128 225.317368,487.167023 207.863525,483.671814 
	C173.485168,476.787415 144.047577,460.122406 118.511566,436.334930 
	C117.996101,435.854767 117.971863,434.847321 118.433823,433.904633 
	C126.370819,439.845001 134.021667,446.221222 142.293320,451.651855 
	C182.503433,478.051147 226.286377,487.919708 273.640442,477.810333 
	C315.755463,468.819427 351.320129,446.966553 382.835449,418.417511 
	C397.833679,404.830963 411.564758,389.845581 426.050659,375.312500 
	C433.774292,384.342285 442.082764,394.055817 450.391235,403.769348 
	C450.697876,403.638794 451.004547,403.508270 451.311188,403.377747 
	C445.726349,358.902924 440.141510,314.428101 434.556671,269.953278 
	C430.378235,276.508728 427.229797,283.267975 423.977051,289.976654 
	C401.756500,335.805664 373.784546,377.351410 333.733643,409.691986 
	C305.986420,432.097504 274.910553,447.058502 239.007660,451.068207 
	C219.571533,453.238861 200.364578,452.268616 181.449661,447.613983 
	C146.458038,439.003204 115.701416,422.219177 88.726120,398.400208 
	C87.279533,397.122864 85.708168,395.986816 84.194878,394.785004 
	C83.808083,395.191071 83.421280,395.597107 83.034477,396.003174 
	C84.411003,398.011322 85.787521,400.019470 87.018898,402.661316 
	C87.309982,402.839417 87.601067,403.017548 87.837486,403.040009 
	C87.837486,403.040009 87.694145,403.121643 87.527077,403.776764 
	C87.997414,404.226685 88.467751,404.676605 88.982758,405.046844 
	C88.982758,405.046844 88.898743,405.011047 88.999504,405.676819 
M263.981659,228.121292 
	C264.599121,221.749466 265.216583,215.377655 265.982025,208.196609 
	C267.317902,202.796692 268.653778,197.396774 270.549774,191.566971 
	C274.296051,182.656235 279.379456,174.661850 287.230530,167.979446 
	C296.393707,162.950256 305.299927,157.359024 314.780701,153.024490 
	C328.769745,146.628815 343.290802,141.355240 355.730804,130.784744 
	C362.221863,123.876617 368.712921,116.968491 375.790558,109.748192 
	C378.898743,104.180176 382.006897,98.612152 385.721680,92.694778 
	C387.493011,88.485466 389.264343,84.276146 391.656830,79.647980 
	C392.715912,75.766464 393.774963,71.884941 395.122894,67.285057 
	C395.694153,64.523560 396.265411,61.762066 396.972717,58.212498 
	C397.404266,55.643623 397.835815,53.074749 398.761353,49.751320 
	C398.913422,44.514442 399.065491,39.277565 399.628418,33.338497 
	C399.628418,28.654676 399.628418,23.970856 399.628418,18.289082 
	C388.571442,28.315031 376.025238,32.276619 363.358276,35.994381 
	C348.407013,40.382565 333.477203,44.833073 319.261108,53.042370 
	C309.194641,58.731663 299.511047,64.922432 291.343689,74.189827 
	C286.117493,81.422310 280.891266,88.654785 275.150238,96.309059 
	C272.395142,103.194382 269.640076,110.079704 266.288422,117.426697 
	C264.460175,126.925339 262.631958,136.423996 260.282257,146.534088 
	C259.229279,155.691238 258.176331,164.848373 256.825623,174.768387 
	C255.933182,181.513718 255.040756,188.259064 253.938873,195.754028 
	C253.462402,197.636658 252.985947,199.519272 252.362259,201.983536 
	C251.763031,199.638702 251.298965,197.822739 250.978546,195.159195 
	C249.944550,189.442200 248.910553,183.725189 248.016144,177.141937 
	C246.565979,168.102997 245.115814,159.064072 243.481247,149.298874 
	C241.085556,142.166809 238.689865,135.034760 236.136902,127.175003 
	C233.045380,121.785614 229.953857,116.396225 226.714020,110.355530 
	C221.838394,105.178185 216.962769,100.000839 211.770508,94.240135 
	C206.214523,90.142288 200.658539,86.044434 194.754517,81.345558 
	C187.170410,77.947273 179.586319,74.548996 171.312408,70.820587 
	C149.143173,62.646725 107.620918,60.471584 101.243721,67.271423 
	C109.579384,71.462662 115.049171,78.453003 120.040062,86.738739 
	C122.592934,91.533264 125.145805,96.327797 127.881088,101.827049 
	C130.604858,106.880875 133.328644,111.934700 136.215866,117.661186 
	C139.731323,122.475357 143.246780,127.289536 146.912720,132.785858 
	C151.572586,137.206665 156.232437,141.627487 161.199600,146.668152 
	C168.473175,152.053528 176.013290,156.927124 185.426514,159.639023 
	C194.954514,163.003479 204.482498,166.367920 214.624252,170.086060 
	C219.711487,174.407104 224.798721,178.728149 230.131195,183.699982 
	C233.057831,188.474701 235.984482,193.249420 239.006165,198.783966 
	C240.633652,203.868500 242.261154,208.953018 243.927109,214.909851 
	C244.358078,220.609070 244.789047,226.308304 245.075012,232.932907 
	C244.844116,238.884750 244.613235,244.836594 244.121750,251.536667 
	C243.117630,257.692047 242.113510,263.847412 240.703308,270.613342 
	C234.278717,290.294678 218.400070,291.979431 200.711823,290.848114 
	C200.582977,293.532593 200.475311,295.775848 200.192429,298.928009 
	C200.252548,302.956329 200.312668,306.984680 200.190918,311.900116 
	C200.077164,313.838074 199.963425,315.776031 199.828094,318.081696 
	C192.005615,318.081696 184.535980,318.167786 177.069763,318.045197 
	C173.370148,317.984436 171.529968,319.176880 171.917801,323.221680 
	C172.216812,326.339996 171.977417,329.509949 171.977417,333.033569 
	C174.013641,333.340088 175.765259,333.807068 177.523544,333.833740 
	C185.684052,333.957550 193.852966,334.169830 202.005280,333.915344 
	C206.050766,333.789093 207.190231,335.147369 207.076538,339.075012 
	C206.817871,348.010681 206.994965,356.958984 206.994965,366.286743 
	C209.648987,366.441772 211.777466,366.673645 213.906052,366.674591 
	C260.719727,366.695282 307.533417,366.690918 354.347107,366.687683 
	C355.678925,366.687592 357.024536,366.762665 358.340149,366.605377 
	C364.281860,365.894928 366.387329,363.494080 366.002930,357.995819 
	C365.694397,353.582489 363.476379,351.951904 357.617981,351.952789 
	C328.963409,351.957245 300.308868,351.979431 271.654297,351.995148 
	C269.881683,351.996124 268.109100,351.995300 265.936005,351.995300 
	C265.936005,348.808472 266.176392,346.176056 265.877716,343.606323 
	C265.466125,340.065247 266.744568,338.894135 270.286499,338.942871 
	C281.612701,339.098663 292.942627,338.990051 304.271118,338.973663 
	C329.093567,338.937805 353.917328,339.005493 378.736816,338.713409 
	C381.738647,338.678101 385.554443,337.445099 387.443970,335.362061 
	C388.975494,333.673676 389.183624,329.381989 388.099121,327.164032 
	C387.219543,325.365204 383.554840,324.053894 381.110901,324.030334 
	C358.122864,323.808563 335.131683,323.914673 312.141418,323.915802 
	C305.267578,323.916138 305.003265,323.623688 305.004761,316.422485 
	C305.006042,310.007721 305.006042,310.005432 311.643951,310.005219 
	C340.964966,310.004272 370.286011,310.011932 399.607025,309.998962 
	C405.736542,309.996277 408.269135,307.642731 408.003021,302.315643 
	C407.782196,297.895386 405.387665,296.011627 399.755188,296.004486 
	C370.767517,295.967834 341.779663,295.894897 312.792267,295.974609 
	C302.887665,296.001831 293.560944,294.128571 284.642670,288.427856 
	C281.435608,285.282013 278.228516,282.136139 274.829132,278.306305 
	C272.517731,273.205322 270.206329,268.104309 267.987091,262.188812 
	C266.935883,257.128052 265.884705,252.067322 264.981506,246.138550 
	C264.599182,240.427887 264.216888,234.717209 263.981659,228.121292 
M308.500000,389.049622 
	C317.248352,389.049622 325.996704,389.049622 334.685211,389.049622 
	C334.685211,385.029846 334.685211,381.634216 334.685211,378.302368 
	C314.998688,378.302368 295.627991,378.302368 276.314087,378.302368 
	C276.314087,382.009552 276.314087,385.407928 276.314087,389.049622 
	C286.917236,389.049622 297.208618,389.049622 308.500000,389.049622 
M141.267548,337.935028 
	C141.897812,337.185364 143.051880,336.450989 143.074280,335.683594 
	C143.232468,330.259674 143.158356,324.828979 143.158356,319.380920 
	C136.789612,319.380920 130.938492,319.380920 125.225960,319.380920 
	C125.225960,325.688354 125.225960,331.612427 125.225960,337.946503 
	C130.417801,337.946503 135.362137,337.946503 141.267548,337.935028 
M186.742188,379.949188 
	C185.578079,380.674347 183.451447,381.343811 183.405746,382.133698 
	C183.104050,387.347076 183.249893,392.586395 183.249893,397.732422 
	C189.883209,397.732422 195.780594,397.732422 201.750427,397.732422 
	C201.750427,391.745148 201.750427,386.032959 201.750427,379.948669 
	C196.900162,379.948669 192.296127,379.948669 186.742188,379.949188 
M159.299164,365.997925 
	C160.195694,365.372314 161.844574,364.775879 161.870117,364.116547 
	C162.080246,358.693573 161.988770,353.258911 161.988770,347.815369 
	C155.420685,347.815369 149.477432,347.815369 143.268311,347.815369 
	C143.268311,353.868225 143.268311,359.744629 143.268311,365.999298 
	C148.438614,365.999298 153.385254,365.999298 159.299164,365.997925 
M255.289612,388.997955 
	C256.191193,388.206696 257.758911,387.498657 257.870117,386.608643 
	C258.211395,383.877289 257.994324,381.076111 257.994324,378.347412 
	C247.725189,378.347412 238.007446,378.347412 228.463257,378.347412 
	C228.463257,382.094879 228.463257,385.480499 228.463257,388.999146 
	C237.342972,388.999146 245.833481,388.999146 255.289612,388.997955 
M191.370728,342.001007 
	C186.966446,342.001007 182.562149,342.001007 178.259430,342.001007 
	C178.259430,348.463135 178.259430,354.217773 178.259430,360.050354 
	C184.226379,360.050354 189.931198,360.050354 195.998230,360.050354 
	C195.998230,354.810699 195.817780,349.848175 196.063248,344.906830 
	C196.220398,341.743317 194.422882,341.872955 191.370728,342.001007 
M153.609711,307.536560 
	C156.047989,307.536560 158.486282,307.536560 161.002579,307.536560 
	C161.002579,302.368408 161.002579,297.834320 161.002579,293.277710 
	C156.250778,293.277710 151.853424,293.277710 147.429291,293.277710 
	C147.429291,298.089966 147.429291,302.610962 147.429291,307.535248 
	C149.418991,307.535248 151.054596,307.535248 153.609711,307.536560 
M218.282791,399.975830 
	C218.282791,404.202179 218.282791,408.428528 218.282791,412.658112 
	C223.230591,412.658112 227.916595,412.658112 232.550873,412.658112 
	C234.314667,398.968445 234.306152,398.954834 221.447601,399.161133 
	C220.628082,399.174255 219.810516,399.309204 218.282791,399.975830 
M198.999115,411.647461 
	C199.618835,407.502380 198.302231,405.698883 193.663635,405.902771 
	C182.337967,406.400635 184.193985,404.311554 184.003967,415.737488 
	C183.982697,417.016663 184.001099,418.296539 184.001099,419.718506 
	C189.166031,419.718506 193.872910,419.718506 198.999115,419.718506 
	C198.999115,417.158752 198.999115,414.874329 198.999115,411.647461 
M107.690887,295.985413 
	C106.798790,296.785828 105.202477,297.532471 105.136543,298.395966 
	C104.851624,302.127228 105.014595,305.892700 105.014595,309.737183 
	C109.899139,309.737183 114.270210,309.737183 118.732780,309.737183 
	C118.732780,305.095337 118.732780,300.722076 118.732780,295.983246 
	C115.201172,295.983246 111.926331,295.983246 107.690887,295.985413 
M208.666382,417.111511 
	C207.269470,417.227509 205.872574,417.343475 204.589600,417.449982 
	C204.589600,421.562195 204.589600,425.129547 204.589600,428.793274 
	C208.466751,428.793274 212.031418,428.793274 215.726227,428.793274 
	C215.726227,424.869934 215.726227,421.176758 215.726227,417.111511 
	C213.496979,417.111511 211.544968,417.111511 208.666382,417.111511 
M108.969940,336.386139 
	C109.426353,332.693268 109.882759,329.000366 110.336960,325.325378 
	C105.813805,325.325378 102.282104,325.325378 98.819824,325.325378 
	C98.819824,329.180634 98.819824,332.687927 98.819824,336.486145 
	C102.185295,336.486145 105.134727,336.486145 108.969940,336.386139 
M262.221954,412.249451 
	C263.646118,412.159119 265.070282,412.068787 266.450745,411.981232 
	C266.450745,408.153870 266.450745,404.757263 266.450745,401.342499 
	C262.478424,401.342499 258.800690,401.342499 255.223022,401.342499 
	C255.223022,405.111237 255.223022,408.516785 255.223022,412.249207 
	C257.419556,412.249207 259.383301,412.249207 262.221954,412.249451 
M239.925522,446.363800 
	C243.030487,446.363800 246.135452,446.363800 249.341888,446.363800 
	C249.341888,442.286224 249.341888,438.857513 249.341888,435.213318 
	C245.524780,435.213318 241.958191,435.213318 237.546753,435.213318 
	C238.073227,439.103180 238.559311,442.694702 239.925522,446.363800 
M292.909943,411.314240 
	C292.909943,407.923676 292.909943,404.533081 292.909943,401.242126 
	C288.711151,401.242126 285.131683,401.242126 281.338226,401.242126 
	C281.338226,404.871887 281.338226,408.255280 281.338226,412.048584 
	C285.128326,412.048584 288.709564,412.048584 292.909943,411.314240 
M192.850082,438.377136 
	C192.850082,435.980255 192.850082,433.583405 192.850082,431.216797 
	C188.554947,431.216797 184.984314,431.216797 181.330414,431.216797 
	C181.330414,434.952209 181.330414,438.456360 181.330414,442.147949 
	C184.454758,442.147949 187.281082,442.404297 190.016632,442.017944 
	C191.066971,441.869629 191.910370,440.255859 192.850082,438.377136 
M166.017014,409.350372 
	C166.017014,406.428772 166.017014,403.507172 166.017014,400.537964 
	C162.028275,400.537964 158.761276,400.537964 155.335602,400.537964 
	C155.335602,404.470276 155.335602,408.162720 155.335602,412.925049 
	C159.281555,411.952179 162.643707,411.123260 166.017014,409.350372 
M163.999435,427.566528 
	C163.916275,426.128662 163.833130,424.690826 163.754196,423.326172 
	C159.667175,423.326172 155.936951,423.326172 152.303619,423.326172 
	C152.303619,427.078827 152.303619,430.496399 152.303619,433.819916 
	C156.335999,433.819916 160.058945,433.819916 163.999481,433.819916 
	C163.999481,431.821747 163.999481,430.171906 163.999435,427.566528 
M219.161026,448.015381 
	C219.959717,447.259216 221.359192,446.566589 221.447098,445.735260 
	C221.738388,442.980469 221.557068,440.175751 221.557068,437.162903 
	C217.520142,437.162903 213.963760,437.162903 210.199158,437.162903 
	C210.199158,440.787781 210.199158,444.182526 210.199158,448.018250 
	C213.018723,448.018250 215.628937,448.018250 219.161026,448.015381 
M102.612190,377.995300 
	C98.442253,378.472778 97.980553,380.103546 99.555290,388.639374 
	C103.288315,388.639374 106.993950,388.639374 110.640488,388.639374 
	C110.640488,384.980957 110.640488,381.714905 110.640488,377.995209 
	C108.123688,377.995209 105.839699,377.995209 102.612190,377.995300 
M136.475250,386.018280 
	C138.402832,386.018280 140.330429,386.018280 142.308350,386.018280 
	C142.308350,382.009766 142.308350,378.619110 142.308350,375.286560 
	C138.389603,375.286560 134.812042,375.286560 131.295120,375.286560 
	C131.295120,378.991882 131.295120,382.385101 131.295120,386.018219 
	C132.915131,386.018219 134.222839,386.018219 136.475250,386.018280 
M93.006134,363.444702 
	C93.006134,361.368683 93.006134,359.292664 93.006134,357.333496 
	C88.625740,357.333496 84.915916,357.333496 81.336021,357.333496 
	C81.336021,361.053894 81.336021,364.432159 81.336021,368.007996 
	C84.306885,368.007996 86.955971,367.817688 89.565269,368.058472 
	C92.514252,368.330597 93.412308,367.073700 93.006134,363.444702 
M115.854790,362.612061 
	C118.802895,362.612061 121.750999,362.612061 124.740219,362.612061 
	C124.740219,358.452606 124.740219,354.872162 124.740219,351.260071 
	C121.050217,351.260071 117.644592,351.260071 113.472054,351.260071 
	C113.997330,355.246765 114.475716,358.877563 115.854790,362.612061 
M75.580154,339.922882 
	C77.672508,339.922882 79.764862,339.922882 81.859299,339.922882 
	C81.859299,335.666901 81.859299,332.080994 81.859299,328.322235 
	C78.198311,328.322235 74.806816,328.322235 70.995415,328.322235 
	C70.995415,331.360168 71.173080,334.160767 70.947784,336.928558 
	C70.699356,339.980591 72.456627,340.106750 75.580154,339.922882 
M74.005959,308.336761 
	C74.005959,305.593231 74.005959,302.849731 74.005959,300.281433 
	C69.634933,300.281433 66.035645,300.281433 62.392487,300.281433 
	C62.392487,303.957306 62.392487,307.341980 62.392487,311.008087 
	C64.688919,311.008087 66.698181,311.232056 68.630859,310.943359 
	C70.460365,310.670105 72.209526,309.858948 74.005959,308.336761 
M317.304474,400.931030 
	C314.226105,400.931030 311.147736,400.931030 308.106964,400.931030 
	C308.106964,404.931854 308.106964,408.308502 308.106964,411.773041 
	C311.803497,411.773041 315.195526,411.773041 319.295593,411.773041 
	C318.929352,408.014862 318.589233,404.524811 317.304474,400.931030 
M168.974304,388.287415 
	C168.974304,385.005310 168.974304,381.723206 168.974304,378.385559 
	C165.131241,378.385559 161.613144,378.385559 158.220505,378.385559 
	C158.220505,382.056458 158.220505,385.337433 158.220505,388.943268 
	C161.710632,388.943268 164.993286,388.943268 168.974304,388.287415 
M136.897141,412.242645 
	C136.897141,408.968323 136.897141,405.693970 136.897141,402.290741 
	C133.006012,402.290741 129.454742,402.290741 125.974884,402.290741 
	C125.974884,405.970032 125.974884,409.349091 125.974884,412.902405 
	C129.619583,412.902405 132.916031,412.902405 136.897141,412.242645 
M263.000488,435.449310 
	C263.084839,436.886414 263.169220,438.323547 263.251099,439.718414 
	C267.031921,439.718414 270.451355,439.718414 273.849426,439.718414 
	C273.849426,436.040009 273.849426,432.649475 273.849426,429.290680 
	C270.099152,429.290680 266.687164,429.290680 263.000458,429.290680 
	C263.000458,431.218994 263.000458,432.859497 263.000488,435.449310 
M296.231903,420.100891 
	C292.806671,420.100891 289.381470,420.100891 286.042114,420.100891 
	C286.042114,423.999359 286.042114,427.384521 286.042114,430.826904 
	C289.784424,430.826904 293.188385,430.826904 296.899292,430.826904 
	C296.899292,427.327667 296.899292,424.052673 296.231903,420.100891 
M240.709457,416.013123 
	C239.898926,419.471008 239.088394,422.928894 238.191452,426.755402 
	C242.854065,426.755402 246.238327,426.755402 249.747467,426.755402 
	C249.747467,423.125397 249.747467,419.743103 249.747467,416.002747 
	C246.891373,416.002747 244.274597,416.002747 240.709457,416.013123 
z"/>
<path fill="#27246B" opacity="1.000000" stroke="none" 
	d="
M87.164047,402.027618 
	C85.787521,400.019470 84.411003,398.011322 83.034477,396.003174 
	C83.421280,395.597107 83.808083,395.191071 84.194878,394.785004 
	C85.708168,395.986816 87.279533,397.122864 88.726120,398.400208 
	C115.701416,422.219177 146.458038,439.003204 181.449661,447.613983 
	C200.364578,452.268616 219.571533,453.238861 239.007660,451.068207 
	C274.910553,447.058502 305.986420,432.097504 333.733643,409.691986 
	C373.784546,377.351410 401.756500,335.805664 423.977051,289.976654 
	C427.229797,283.267975 430.378235,276.508728 434.556671,269.953278 
	C440.141510,314.428101 445.726349,358.902924 451.311188,403.377747 
	C451.004547,403.508270 450.697876,403.638794 450.391235,403.769348 
	C442.082764,394.055817 433.774292,384.342285 426.050659,375.312500 
	C411.564758,389.845581 397.833679,404.830963 382.835449,418.417511 
	C351.320129,446.966553 315.755463,468.819427 273.640442,477.810333 
	C226.286377,487.919708 182.503433,478.051147 142.293320,451.651855 
	C134.021667,446.221222 126.370819,439.845001 118.150497,433.963348 
	C117.867172,434.022064 117.967308,434.150055 117.985344,433.802368 
	C116.026024,431.626862 114.048668,429.799103 111.938553,427.660522 
	C109.178459,425.256805 106.551147,423.163910 103.960632,421.045166 
	C103.997437,421.019348 103.959961,421.101074 104.179611,420.687683 
	C103.900398,420.190826 103.401543,420.107300 102.941528,420.021729 
	C102.980362,420.019684 102.975655,420.097351 103.186371,419.679260 
	C102.899086,419.182159 102.401093,419.103149 101.941711,419.021912 
	C101.980339,419.019714 101.975945,419.096985 102.192581,418.678101 
	C101.906952,418.181183 101.404701,418.103119 100.940979,418.022766 
	C100.979523,418.020477 100.974960,418.097565 101.192162,417.678986 
	C100.907173,417.181732 100.404976,417.103088 99.940613,417.016968 
	C99.978439,417.009552 99.944427,417.078735 100.255699,416.809448 
	C100.007553,416.015350 99.448135,415.490509 98.956757,414.971985 
	C99.024796,414.978241 99.022583,415.114868 98.966019,414.789490 
	C98.509529,414.309906 98.109604,414.155701 97.401367,413.882385 
	C95.012764,411.868591 92.932480,409.973907 90.852196,408.079224 
	C90.852196,408.079224 90.933167,408.036407 91.016281,407.744843 
	C90.640434,406.990479 90.181473,406.527710 89.722519,406.064941 
	C89.722511,406.064941 89.896713,406.014465 89.826431,405.833191 
	C89.470352,405.438324 89.184547,405.224670 88.898743,405.011047 
	C88.898743,405.011047 88.982758,405.046844 88.999626,404.742950 
	C88.575706,403.999908 88.134926,403.560791 87.694145,403.121643 
	C87.694145,403.121643 87.837486,403.040009 87.835960,402.873108 
	C87.722801,402.369537 87.499344,402.143341 87.164047,402.027618 
z"/>
<path fill="#273E82" opacity="1.000000" stroke="none" 
	d="
M285.002502,288.993469 
	C293.560944,294.128571 302.887665,296.001831 312.792267,295.974609 
	C341.779663,295.894897 370.767517,295.967834 399.755188,296.004486 
	C405.387665,296.011627 407.782196,297.895386 408.003021,302.315643 
	C408.269135,307.642731 405.736542,309.996277 399.607025,309.998962 
	C370.286011,310.011932 340.964966,310.004272 311.643951,310.005219 
	C305.006042,310.005432 305.006042,310.007721 305.004761,316.422485 
	C305.003265,323.623688 305.267578,323.916138 312.141418,323.915802 
	C335.131683,323.914673 358.122864,323.808563 381.110901,324.030334 
	C383.554840,324.053894 387.219543,325.365204 388.099121,327.164032 
	C389.183624,329.381989 388.975494,333.673676 387.443970,335.362061 
	C385.554443,337.445099 381.738647,338.678101 378.736816,338.713409 
	C353.917328,339.005493 329.093567,338.937805 304.271118,338.973663 
	C292.942627,338.990051 281.612701,339.098663 270.286499,338.942871 
	C266.744568,338.894135 265.466125,340.065247 265.877716,343.606323 
	C266.176392,346.176056 265.936005,348.808472 265.936005,351.995300 
	C268.109100,351.995300 269.881683,351.996124 271.654297,351.995148 
	C300.308868,351.979431 328.963409,351.957245 357.617981,351.952789 
	C363.476379,351.951904 365.694397,353.582489 366.002930,357.995819 
	C366.387329,363.494080 364.281860,365.894928 358.340149,366.605377 
	C357.024536,366.762665 355.678925,366.687592 354.347107,366.687683 
	C307.533417,366.690918 260.719727,366.695282 213.906052,366.674591 
	C211.777466,366.673645 209.648987,366.441772 206.994965,366.286743 
	C206.994965,356.958984 206.817871,348.010681 207.076538,339.075012 
	C207.190231,335.147369 206.050766,333.789093 202.005280,333.915344 
	C193.852966,334.169830 185.684052,333.957550 177.523544,333.833740 
	C175.765259,333.807068 174.013641,333.340088 171.977417,333.033569 
	C171.977417,329.509949 172.216812,326.339996 171.917801,323.221680 
	C171.529968,319.176880 173.370148,317.984436 177.069763,318.045197 
	C184.535980,318.167786 192.005615,318.081696 199.828094,318.081696 
	C199.963425,315.776031 200.077164,313.838074 200.678207,311.454529 
	C202.471619,310.828644 203.810486,310.775482 205.078964,310.448944 
	C224.469391,305.457306 243.867889,300.495270 263.225159,295.377472 
	C270.535858,293.444580 277.746338,291.132629 285.002502,288.993469 
M267.810760,325.994598 
	C268.977417,325.994812 270.144073,325.995148 271.310730,325.995239 
	C280.662140,325.996002 280.764740,325.883453 279.949066,316.540833 
	C279.934570,316.375183 279.951080,316.206787 279.936218,316.041199 
	C279.677582,313.160919 278.483795,311.596283 275.208069,311.844147 
	C271.616730,312.115845 267.988983,311.905975 264.011566,311.905975 
	C264.011566,315.821716 263.772858,319.313995 264.143585,322.740356 
	C264.269989,323.908661 265.928619,324.911163 267.810760,325.994598 
M241.995132,347.346954 
	C241.994781,339.005280 241.994781,339.005249 233.562180,339.004944 
	C232.567139,339.004913 231.560150,339.104584 230.579208,338.987030 
	C227.196457,338.581787 225.566376,339.816437 225.970886,343.417664 
	C226.173309,345.219940 225.621017,347.191803 226.157944,348.843933 
	C226.563187,350.090912 228.062592,351.695129 229.237991,351.842773 
	C232.503311,352.252930 235.899155,352.294373 239.145157,351.815430 
	C240.245819,351.653015 241.052902,349.500977 241.995132,347.346954 
M234.354340,325.242188 
	C236.552307,324.765076 239.848068,326.099152 239.964966,322.094208 
	C240.079514,318.169891 239.989944,314.239594 239.989944,310.280579 
	C235.353714,310.280579 231.432526,310.280579 227.241714,310.280579 
	C227.241714,315.284210 227.241714,320.005219 227.241714,325.244629 
	C229.489395,325.244629 231.448120,325.244629 234.354340,325.242188 
z"/>
<path fill="#030303" opacity="1.000000" stroke="none" 
	d="
M90.944122,408.419189 
	C92.932480,409.973907 95.012764,411.868591 97.467209,414.265625 
	C98.235107,414.883606 98.628845,414.999237 99.022583,415.114868 
	C99.022583,415.114868 99.024796,414.978241 98.709396,415.262512 
	C98.910820,416.057434 99.427628,416.568085 99.944427,417.078735 
	C99.944427,417.078735 99.978439,417.009552 100.016617,417.281921 
	C100.361511,417.735382 100.668236,417.916473 100.974960,418.097565 
	C100.974960,418.097565 100.979523,418.020477 101.017212,418.287720 
	C101.361916,418.735657 101.668930,418.916321 101.975937,419.096985 
	C101.975945,419.096985 101.980339,419.019714 102.017303,419.288239 
	C102.361397,419.736969 102.668526,419.917145 102.975655,420.097351 
	C102.975655,420.097351 102.980362,420.019684 103.009857,420.299438 
	C103.346222,420.753143 103.653091,420.927124 103.959961,421.101074 
	C103.959961,421.101074 103.997437,421.019348 104.002846,421.379791 
	C106.331795,424.179596 108.655334,426.618958 111.102280,429.377441 
	C113.472893,431.181061 115.720108,432.665558 117.967316,434.150055 
	C117.967308,434.150055 117.867172,434.022064 117.792816,434.053955 
	C117.971863,434.847321 117.996101,435.854767 118.511566,436.334930 
	C144.047577,460.122406 173.485168,476.787415 207.863525,483.671814 
	C225.317368,487.167023 243.016327,487.419128 260.828125,485.196014 
	C301.350342,480.138306 336.589569,462.779816 368.564545,438.563110 
	C384.126312,426.777191 398.072571,412.848877 412.648315,399.776855 
	C416.321899,396.482269 419.604156,392.751221 423.662476,388.612915 
	C424.563232,398.774628 424.422943,407.149536 416.463684,414.241730 
	C393.345734,434.841339 369.267639,454.017548 341.868439,468.704865 
	C320.848846,479.972382 298.835480,488.950531 275.302826,492.796692 
	C224.592773,501.084686 178.315552,490.460907 137.579254,458.203552 
	C119.623505,443.985229 103.953636,427.685242 90.944122,408.419189 
z"/>
<path fill="#409FD4" opacity="1.000000" stroke="none" 
	d="
M275.665070,95.887260 
	C280.891266,88.654785 286.117493,81.422310 291.886322,74.337479 
	C293.544830,74.522095 294.722595,74.812111 295.766876,74.556534 
	C305.250000,72.235603 314.723999,69.873840 324.173706,67.420334 
	C347.257080,61.426994 370.315796,55.337963 393.425690,49.449318 
	C394.856903,49.084633 396.645172,50.121235 398.267334,50.505875 
	C397.835815,53.074749 397.404266,55.643623 396.497223,58.606430 
	C391.378448,60.035217 386.738525,61.085518 382.091125,62.101589 
	C373.284363,64.027031 364.473297,65.932831 355.850098,67.567390 
	C356.935516,66.341927 357.834808,65.395866 358.734100,64.449806 
	C358.541351,64.251961 358.348572,64.054123 358.155792,63.856285 
	C356.253906,65.237610 354.352051,66.618935 352.381805,68.080948 
	C352.313446,68.161629 352.006470,68.452248 351.705566,68.656319 
	C344.108643,73.985664 336.812622,79.110939 329.057098,84.173470 
	C326.949219,84.166519 325.231689,83.940193 323.664032,84.324837 
	C314.855011,86.486214 306.103363,88.882042 297.290253,91.025719 
	C290.112366,92.771645 282.875671,94.275856 275.665070,95.887260 
z"/>
<path fill="#41A5DA" opacity="1.000000" stroke="none" 
	d="
M398.514343,50.128597 
	C396.645172,50.121235 394.856903,49.084633 393.425690,49.449318 
	C370.315796,55.337963 347.257080,61.426994 324.173706,67.420334 
	C314.723999,69.873840 305.250000,72.235603 295.766876,74.556534 
	C294.722595,74.812111 293.544830,74.522095 292.189575,74.189377 
	C299.511047,64.922432 309.194641,58.731663 319.826355,53.252907 
	C327.726288,51.757187 335.084106,50.143890 342.391174,48.326550 
	C361.345245,43.612507 380.276947,38.808678 399.217590,34.040688 
	C399.065491,39.277565 398.913422,44.514442 398.514343,50.128597 
z"/>
<path fill="#3986BF" opacity="1.000000" stroke="none" 
	d="
M375.203979,110.060364 
	C368.712921,116.968491 362.221863,123.876617 354.994080,130.901062 
	C349.246796,132.035080 344.191437,132.872223 339.233643,134.102707 
	C320.936981,138.643860 302.685852,143.368958 284.382202,147.881210 
	C281.533051,148.583588 278.499451,148.537750 275.674438,148.501617 
	C280.162811,142.098022 284.527893,136.030701 289.338623,129.974411 
	C292.240173,129.701797 294.765747,129.693192 297.141022,129.091339 
	C317.517365,123.928207 337.849792,118.591248 358.234741,113.462883 
	C363.822815,112.057060 369.543915,111.180054 375.203979,110.060364 
z"/>
<path fill="#397FB9" opacity="1.000000" stroke="none" 
	d="
M275.551147,148.837891 
	C278.499451,148.537750 281.533051,148.583588 284.382202,147.881210 
	C302.685852,143.368958 320.936981,138.643860 339.233643,134.102707 
	C344.191437,132.872223 349.246796,132.035080 354.687683,131.029694 
	C343.290802,141.355240 328.769745,146.628815 314.780701,153.024490 
	C305.299927,157.359024 296.393707,162.950256 286.441101,168.024139 
	C276.142242,170.047729 266.632782,172.026627 257.123352,174.005524 
	C258.176331,164.848373 259.229279,155.691238 260.978912,146.250931 
	C264.765472,145.645844 267.855408,145.323914 270.923004,145.369232 
	C268.836853,152.070633 266.773010,158.404770 264.468628,164.959473 
	C264.228088,165.968506 264.228088,166.756958 264.228088,168.250397 
	C264.923828,166.935425 265.267822,166.285233 265.773010,165.322525 
	C269.139862,159.619324 272.345490,154.228607 275.551147,148.837891 
z"/>
<path fill="#3B8DC5" opacity="1.000000" stroke="none" 
	d="
M375.497253,109.904282 
	C369.543915,111.180054 363.822815,112.057060 358.234741,113.462883 
	C337.849792,118.591248 317.517365,123.928207 297.141022,129.091339 
	C294.765747,129.693192 292.240173,129.701797 289.476990,129.664520 
	C294.390778,123.542747 299.611816,117.741890 305.253540,111.957397 
	C306.171478,111.967628 306.694733,112.061905 307.162292,111.940941 
	C329.185822,106.243332 351.189606,100.468102 373.237946,94.868446 
	C377.102173,93.887032 381.151337,93.633698 385.115082,93.044128 
	C382.006897,98.612152 378.898743,104.180176 375.497253,109.904282 
z"/>
<path fill="#284488" opacity="1.000000" stroke="none" 
	d="
M284.822571,288.710663 
	C277.746338,291.132629 270.535858,293.444580 263.225159,295.377472 
	C243.867889,300.495270 224.469391,305.457306 205.078964,310.448944 
	C203.810486,310.775482 202.471619,310.828644 200.769135,311.010986 
	C200.312668,306.984680 200.252548,302.956329 200.675049,298.469360 
	C210.940384,295.652710 220.758835,293.432495 230.497421,290.904694 
	C245.367737,287.044830 260.182892,282.972473 275.021454,278.990295 
	C278.228516,282.136139 281.435608,285.282013 284.822571,288.710663 
z"/>
<path fill="#46B5E7" opacity="1.000000" stroke="none" 
	d="
M119.913918,86.029068 
	C115.049171,78.453003 109.579384,71.462662 101.243721,67.271423 
	C107.620918,60.471584 149.143173,62.646725 171.601700,71.346031 
	C169.610443,72.913010 167.378464,74.082573 165.039490,74.970146 
	C159.723007,76.987610 154.353928,78.866486 148.779266,80.899078 
	C148.552322,80.996475 148.081390,81.145439 147.829681,80.842667 
	C145.365295,80.701965 143.095718,80.604111 140.950424,81.073845 
	C133.913940,82.614525 126.922600,84.361427 119.913918,86.029068 
z"/>
<path fill="#3D93C9" opacity="1.000000" stroke="none" 
	d="
M385.418396,92.869446 
	C381.151337,93.633698 377.102173,93.887032 373.237946,94.868446 
	C351.189606,100.468102 329.185822,106.243332 307.162292,111.940941 
	C306.694733,112.061905 306.171478,111.967628 305.402222,111.652939 
	C311.410583,105.521507 317.690918,99.710922 324.216797,94.198982 
	C325.751953,94.586357 327.125519,95.011185 328.318298,94.712944 
	C344.030151,90.784470 359.692444,86.655586 375.423126,82.805717 
	C380.544006,81.552444 385.826874,80.960976 391.035645,80.066826 
	C389.264343,84.276146 387.493011,88.485466 385.418396,92.869446 
z"/>
<path fill="#3E96CD" opacity="1.000000" stroke="none" 
	d="
M160.892303,146.048294 
	C156.232437,141.627487 151.572586,137.206665 147.203033,132.290619 
	C160.259903,128.488953 173.050339,125.270676 185.777435,121.818840 
	C189.293045,120.865349 192.620010,119.216385 196.336304,118.035065 
	C200.796021,122.776619 204.952957,127.369637 208.762634,132.107849 
	C202.860840,133.850311 197.302429,135.434357 191.752548,137.047714 
	C181.463181,140.038864 171.178772,143.047150 160.892303,146.048294 
z"/>
<path fill="#3B8DC5" opacity="1.000000" stroke="none" 
	d="
M161.045959,146.358215 
	C171.178772,143.047150 181.463181,140.038864 191.752548,137.047714 
	C197.302429,135.434357 202.860840,133.850311 209.063232,132.250305 
	C213.487915,137.126587 217.264755,142.005600 220.833862,147.187286 
	C218.957062,148.206680 217.347366,149.154907 215.608856,149.601013 
	C206.951401,151.822449 198.235397,153.819626 189.601898,156.127289 
	C187.921570,156.576431 186.515762,158.052734 184.983322,159.055252 
	C176.013290,156.927124 168.473175,152.053528 161.045959,146.358215 
z"/>
<path fill="#3F9DD3" opacity="1.000000" stroke="none" 
	d="
M196.033539,117.886520 
	C192.620010,119.216385 189.293045,120.865349 185.777435,121.818840 
	C173.050339,125.270676 160.259903,128.488953 147.127792,131.949554 
	C143.246780,127.289536 139.731323,122.475357 136.517670,117.280762 
	C137.762573,116.611191 138.696533,116.287170 139.650101,116.038147 
	C153.782959,112.347282 167.918396,108.666359 182.362000,105.106644 
	C187.125031,109.448975 191.579285,113.667747 196.033539,117.886520 
z"/>
<path fill="#3E96CD" opacity="1.000000" stroke="none" 
	d="
M275.407654,96.098160 
	C282.875671,94.275856 290.112366,92.771645 297.290253,91.025719 
	C306.103363,88.882042 314.855011,86.486214 323.664032,84.324837 
	C325.231689,83.940193 326.949219,84.166519 328.807037,84.430847 
	C317.045013,94.176765 305.073517,103.602554 292.744141,112.880264 
	C290.803650,112.700401 289.167816,112.391838 287.647583,112.684258 
	C280.708984,114.018913 273.802795,115.522293 266.884979,116.965034 
	C269.640076,110.079704 272.395142,103.194382 275.407654,96.098160 
z"/>
<path fill="#2C4D8F" opacity="1.000000" stroke="none" 
	d="
M274.925293,278.648315 
	C260.182892,282.972473 245.367737,287.044830 230.497421,290.904694 
	C220.758835,293.432495 210.940384,295.652710 200.762665,298.014893 
	C200.475311,295.775848 200.582977,293.532593 200.711823,290.848114 
	C218.400070,291.979431 234.278717,290.294678 241.295563,270.298828 
	C250.556870,267.657349 259.225891,265.330322 267.894928,263.003326 
	C270.206329,268.104309 272.517731,273.205322 274.925293,278.648315 
z"/>
<path fill="#41A5DA" opacity="1.000000" stroke="none" 
	d="
M182.053238,104.983093 
	C167.918396,108.666359 153.782959,112.347282 139.650101,116.038147 
	C138.696533,116.287170 137.762573,116.611191 136.435944,116.944427 
	C133.328644,111.934700 130.604858,106.880875 128.158722,101.323059 
	C130.320236,100.208092 132.186478,99.534607 134.090988,98.996658 
	C143.732178,96.273460 153.383331,93.585495 163.355499,91.007637 
	C169.804413,95.747765 175.928833,100.365425 182.053238,104.983093 
z"/>
<path fill="#3E96CD" opacity="1.000000" stroke="none" 
	d="
M391.346252,79.857407 
	C385.826874,80.960976 380.544006,81.552444 375.423126,82.805717 
	C359.692444,86.655586 344.030151,90.784470 328.318298,94.712944 
	C327.125519,95.011185 325.751953,94.586357 324.362244,93.900543 
	C330.173584,88.531212 336.085083,83.758965 342.235107,79.249306 
	C351.438629,77.595772 360.412201,75.719032 369.366028,73.752159 
	C377.866150,71.884956 386.345520,69.923447 394.834015,68.003410 
	C393.774963,71.884941 392.715912,75.766464 391.346252,79.857407 
z"/>
<path fill="#253C80" opacity="1.000000" stroke="none" 
	d="
M308.000000,389.049622 
	C297.208618,389.049622 286.917236,389.049622 276.314087,389.049622 
	C276.314087,385.407928 276.314087,382.009552 276.314087,378.302368 
	C295.627991,378.302368 314.998688,378.302368 334.685211,378.302368 
	C334.685211,381.634216 334.685211,385.029846 334.685211,389.049622 
	C325.996704,389.049622 317.248352,389.049622 308.000000,389.049622 
z"/>
<path fill="#3986BF" opacity="1.000000" stroke="none" 
	d="
M185.204926,159.347137 
	C186.515762,158.052734 187.921570,156.576431 189.601898,156.127289 
	C198.235397,153.819626 206.951401,151.822449 215.608856,149.601013 
	C217.347366,149.154907 218.957062,148.206680 221.140808,147.338379 
	C225.183090,152.430008 228.710724,157.673248 231.882935,163.060898 
	C228.243301,164.217026 224.911453,165.098969 221.689743,166.281097 
	C219.061707,167.245392 216.565277,168.568420 214.010498,169.732376 
	C204.482498,166.367920 194.954514,163.003479 185.204926,159.347137 
z"/>
<path fill="#44AEE1" opacity="1.000000" stroke="none" 
	d="
M399.423004,33.689590 
	C380.276947,38.808678 361.345245,43.612507 342.391174,48.326550 
	C335.084106,50.143890 327.726288,51.757187 320.171631,53.175575 
	C333.477203,44.833073 348.407013,40.382565 363.358276,35.994381 
	C376.025238,32.276619 388.571442,28.315031 399.628418,18.289082 
	C399.628418,23.970856 399.628418,28.654676 399.423004,33.689590 
z"/>
<path fill="#397FB9" opacity="1.000000" stroke="none" 
	d="
M214.317383,169.909210 
	C216.565277,168.568420 219.061707,167.245392 221.689743,166.281097 
	C224.911453,165.098969 228.243301,164.217026 232.168182,163.237488 
	C235.342438,167.351837 237.876038,171.433990 240.574463,175.764313 
	C241.040543,176.259048 241.341797,176.505646 241.643036,176.752243 
	C241.468307,176.134033 241.293579,175.515808 241.093536,174.515335 
	C238.020111,166.937134 234.972015,159.741180 232.371521,152.421600 
	C236.434631,151.540375 240.050140,150.782745 243.665649,150.025131 
	C245.115814,159.064072 246.565979,168.102997 247.545700,177.573273 
	C241.345490,179.686142 235.615738,181.367661 229.885971,183.049179 
	C224.798721,178.728149 219.711487,174.407104 214.317383,169.909210 
z"/>
<path fill="#3B8DC5" opacity="1.000000" stroke="none" 
	d="
M266.586700,117.195862 
	C273.802795,115.522293 280.708984,114.018913 287.647583,112.684258 
	C289.167816,112.391838 290.803650,112.700401 292.599548,113.185059 
	C283.269501,122.520973 277.103363,133.758652 270.945312,145.001984 
	C267.855408,145.323914 264.765472,145.645844 261.239655,145.945206 
	C262.631958,136.423996 264.460175,126.925339 266.586700,117.195862 
z"/>
<path fill="#44AEE1" opacity="1.000000" stroke="none" 
	d="
M163.030991,90.885178 
	C153.383331,93.585495 143.732178,96.273460 134.090988,98.996658 
	C132.186478,99.534607 130.320236,100.208092 128.067520,100.970695 
	C125.145805,96.327797 122.592934,91.533264 119.976990,86.383911 
	C126.922600,84.361427 133.913940,82.614525 140.950424,81.073845 
	C143.095718,80.604111 145.365295,80.701965 147.977661,81.087875 
	C148.929749,81.769424 149.482147,81.902985 150.015015,82.020485 
	C149.995483,82.004425 149.954697,81.974533 150.081543,82.270966 
	C150.818069,82.722961 151.427734,82.878525 152.017365,83.019409 
	C151.997299,83.004738 151.955765,82.977448 152.071960,83.302658 
	C155.802429,86.046982 159.416702,88.466080 163.030991,90.885178 
z"/>
<path fill="#41A5DA" opacity="1.000000" stroke="none" 
	d="
M195.102554,81.946579 
	C200.658539,86.044434 206.214523,90.142288 211.759705,94.868736 
	C209.829727,96.333664 207.966080,97.345535 205.980942,97.973145 
	C200.190125,99.803963 194.350769,101.481270 188.214294,103.140274 
	C181.390244,98.806313 174.882370,94.550819 168.757538,90.138763 
	C172.566620,88.967888 176.004608,87.991989 179.415909,86.930336 
	C184.654419,85.300049 189.874603,83.610809 195.102554,81.946579 
z"/>
<path fill="#44AEE1" opacity="1.000000" stroke="none" 
	d="
M194.928528,81.646072 
	C189.874603,83.610809 184.654419,85.300049 179.415909,86.930336 
	C176.004608,87.991989 172.566620,88.967888 168.454269,90.025108 
	C162.497223,87.704498 157.226486,85.340973 151.955765,82.977448 
	C151.955765,82.977448 151.997299,83.004738 151.975403,82.671692 
	C151.287231,82.217278 150.620956,82.095901 149.954697,81.974533 
	C149.954697,81.974533 149.995483,82.004425 150.011566,81.718414 
	C149.687180,81.222176 149.346710,81.011940 149.006226,80.801697 
	C154.353928,78.866486 159.723007,76.987610 165.039490,74.970146 
	C167.378464,74.082573 169.610443,72.913010 171.946594,71.511093 
	C179.586319,74.548996 187.170410,77.947273 194.928528,81.646072 
z"/>
<path fill="#3574B1" opacity="1.000000" stroke="none" 
	d="
M256.974487,174.386963 
	C266.632782,172.026627 276.142242,170.047729 286.129303,168.102844 
	C279.379456,174.661850 274.296051,182.656235 269.827881,191.782791 
	C264.120117,193.000534 259.134216,194.002457 254.148346,195.004395 
	C255.040756,188.259064 255.933182,181.513718 256.974487,174.386963 
z"/>
<path fill="#409FD4" opacity="1.000000" stroke="none" 
	d="
M188.530441,103.218750 
	C194.350769,101.481270 200.190125,99.803963 205.980942,97.973145 
	C207.966080,97.345535 209.829727,96.333664 211.918015,95.160416 
	C216.962769,100.000839 221.838394,105.178185 226.401276,110.688034 
	C221.447449,112.159065 216.780502,113.203735 212.175781,114.474007 
	C209.715210,115.152794 207.362030,116.220779 204.655655,116.967705 
	C199.077438,112.287781 193.803940,107.753265 188.530441,103.218750 
z"/>
<path fill="#336CAA" opacity="1.000000" stroke="none" 
	d="
M254.043610,195.379211 
	C259.134216,194.002457 264.120117,193.000534 269.547821,191.997726 
	C268.653778,197.396774 267.317902,202.796692 265.512268,208.600525 
	C257.991211,210.682144 250.939941,212.359848 243.888641,214.037567 
	C242.261154,208.953018 240.633652,203.868500 239.382996,198.397003 
	C243.451508,197.342285 247.143204,196.674530 250.834900,196.006790 
	C251.298965,197.822739 251.763031,199.638702 252.362259,201.983536 
	C252.985947,199.519272 253.462402,197.636658 254.043610,195.379211 
z"/>
<path fill="#3F9DD3" opacity="1.000000" stroke="none" 
	d="
M394.978455,67.644226 
	C386.345520,69.923447 377.866150,71.884956 369.366028,73.752159 
	C360.412201,75.719032 351.438629,77.595772 342.415039,78.968887 
	C345.079834,76.259003 347.901184,74.199898 350.470978,71.864059 
	C351.317291,71.094772 351.513153,69.609901 352.006470,68.452240 
	C352.006470,68.452248 352.313446,68.161629 352.701294,68.409348 
	C353.947449,68.386971 354.805725,68.116882 355.664032,67.846786 
	C364.473297,65.932831 373.284363,64.027031 382.091125,62.101589 
	C386.738525,61.085518 391.378448,60.035217 396.429199,59.000465 
	C396.265411,61.762066 395.694153,64.523560 394.978455,67.644226 
z"/>
<path fill="#2D5394" opacity="1.000000" stroke="none" 
	d="
M267.941010,262.596069 
	C259.225891,265.330322 250.556870,267.657349 241.498611,269.993561 
	C242.113510,263.847412 243.117630,257.692047 244.720032,251.219284 
	C248.036423,250.505386 250.780334,250.234375 253.466461,249.682266 
	C257.277771,248.898865 261.046539,247.908493 264.833496,247.006561 
	C265.884705,252.067322 266.935883,257.128052 267.941010,262.596069 
z"/>
<path fill="#3E96CD" opacity="1.000000" stroke="none" 
	d="
M204.960373,117.113113 
	C207.362030,116.220779 209.715210,115.152794 212.175781,114.474007 
	C216.780502,113.203735 221.447449,112.159065 226.475433,111.013687 
	C229.953857,116.396225 233.045380,121.785614 235.771561,127.566666 
	C229.840668,129.338745 223.556519,128.388336 218.712601,132.835678 
	C213.941620,127.472801 209.450989,122.292961 204.960373,117.113113 
z"/>
<path fill="#3164A3" opacity="1.000000" stroke="none" 
	d="
M243.907867,214.473709 
	C250.939941,212.359848 257.991211,210.682144 265.438293,209.005127 
	C265.216583,215.377655 264.599121,221.749466 263.506958,228.563080 
	C257.094849,230.005753 251.157425,231.006638 245.220016,232.007523 
	C244.789047,226.308304 244.358078,220.609070 243.907867,214.473709 
z"/>
<path fill="#3B8DC5" opacity="1.000000" stroke="none" 
	d="
M218.992966,133.018707 
	C223.556519,128.388336 229.840668,129.338745 235.850189,127.930519 
	C238.689865,135.034760 241.085556,142.166809 243.573456,149.662003 
	C240.050140,150.782745 236.434631,151.540375 232.119858,152.239594 
	C227.278046,145.793716 223.135513,139.406204 218.992966,133.018707 
z"/>
<path fill="#2E5B9C" opacity="1.000000" stroke="none" 
	d="
M245.147522,232.470215 
	C251.157425,231.006638 257.094849,230.005753 263.433411,229.005707 
	C264.216888,234.717209 264.599182,240.427887 264.907501,246.572556 
	C261.046539,247.908493 257.277771,248.898865 253.466461,249.682266 
	C250.780334,250.234375 248.036423,250.505386 244.850327,250.845169 
	C244.613235,244.836594 244.844116,238.884750 245.147522,232.470215 
z"/>
<path fill="#284488" opacity="1.000000" stroke="none" 
	d="
M140.787018,337.940765 
	C135.362137,337.946503 130.417801,337.946503 125.225960,337.946503 
	C125.225960,331.612427 125.225960,325.688354 125.225960,319.380920 
	C130.938492,319.380920 136.789612,319.380920 143.158356,319.380920 
	C143.158356,324.828979 143.232468,330.259674 143.074280,335.683594 
	C143.051880,336.450989 141.897812,337.185364 140.787018,337.940765 
z"/>
<path fill="#273E82" opacity="1.000000" stroke="none" 
	d="
M187.217148,379.948914 
	C192.296127,379.948669 196.900162,379.948669 201.750427,379.948669 
	C201.750427,386.032959 201.750427,391.745148 201.750427,397.732422 
	C195.780594,397.732422 189.883209,397.732422 183.249893,397.732422 
	C183.249893,392.586395 183.104050,387.347076 183.405746,382.133698 
	C183.451447,381.343811 185.578079,380.674347 187.217148,379.948914 
z"/>
<path fill="#253C80" opacity="1.000000" stroke="none" 
	d="
M158.815536,365.998596 
	C153.385254,365.999298 148.438614,365.999298 143.268311,365.999298 
	C143.268311,359.744629 143.268311,353.868225 143.268311,347.815369 
	C149.477432,347.815369 155.420685,347.815369 161.988770,347.815369 
	C161.988770,353.258911 162.080246,358.693573 161.870117,364.116547 
	C161.844574,364.775879 160.195694,365.372314 158.815536,365.998596 
z"/>
<path fill="#253C80" opacity="1.000000" stroke="none" 
	d="
M254.806808,388.998535 
	C245.833481,388.999146 237.342972,388.999146 228.463257,388.999146 
	C228.463257,385.480499 228.463257,382.094879 228.463257,378.347412 
	C238.007446,378.347412 247.725189,378.347412 257.994324,378.347412 
	C257.994324,381.076111 258.211395,383.877289 257.870117,386.608643 
	C257.758911,387.498657 256.191193,388.206696 254.806808,388.998535 
z"/>
<path fill="#253C80" opacity="1.000000" stroke="none" 
	d="
M191.852142,342.001099 
	C194.422882,341.872955 196.220398,341.743317 196.063248,344.906830 
	C195.817780,349.848175 195.998230,354.810699 195.998230,360.050354 
	C189.931198,360.050354 184.226379,360.050354 178.259430,360.050354 
	C178.259430,354.217773 178.259430,348.463135 178.259430,342.001007 
	C182.562149,342.001007 186.966446,342.001007 191.852142,342.001099 
z"/>
<path fill="#3574B1" opacity="1.000000" stroke="none" 
	d="
M250.906708,195.582993 
	C247.143204,196.674530 243.451508,197.342285 239.335480,198.017090 
	C235.984482,193.249420 233.057831,188.474701 230.008575,183.374573 
	C235.615738,181.367661 241.345490,179.686142 247.475906,178.006409 
	C248.910553,183.725189 249.944550,189.442200 250.906708,195.582993 
z"/>
<path fill="#2C4D8F" opacity="1.000000" stroke="none" 
	d="
M153.149948,307.535889 
	C151.054596,307.535248 149.418991,307.535248 147.429291,307.535248 
	C147.429291,302.610962 147.429291,298.089966 147.429291,293.277710 
	C151.853424,293.277710 156.250778,293.277710 161.002579,293.277710 
	C161.002579,297.834320 161.002579,302.368408 161.002579,307.536560 
	C158.486282,307.536560 156.047989,307.536560 153.149948,307.535889 
z"/>
<path fill="#273E82" opacity="1.000000" stroke="none" 
	d="
M218.637421,399.681641 
	C219.810516,399.309204 220.628082,399.174255 221.447601,399.161133 
	C234.306152,398.954834 234.314667,398.968445 232.550873,412.658112 
	C227.916595,412.658112 223.230591,412.658112 218.282791,412.658112 
	C218.282791,408.428528 218.282791,404.202179 218.637421,399.681641 
z"/>
<path fill="#253C80" opacity="1.000000" stroke="none" 
	d="
M198.999115,412.118652 
	C198.999115,414.874329 198.999115,417.158752 198.999115,419.718506 
	C193.872910,419.718506 189.166031,419.718506 184.001099,419.718506 
	C184.001099,418.296539 183.982697,417.016663 184.003967,415.737488 
	C184.193985,404.311554 182.337967,406.400635 193.663635,405.902771 
	C198.302231,405.698883 199.618835,407.502380 198.999115,412.118652 
z"/>
<path fill="#2C4D8F" opacity="1.000000" stroke="none" 
	d="
M108.171188,295.984314 
	C111.926331,295.983246 115.201172,295.983246 118.732780,295.983246 
	C118.732780,300.722076 118.732780,305.095337 118.732780,309.737183 
	C114.270210,309.737183 109.899139,309.737183 105.014595,309.737183 
	C105.014595,305.892700 104.851624,302.127228 105.136543,298.395966 
	C105.202477,297.532471 106.798790,296.785828 108.171188,295.984314 
z"/>
<path fill="#2D4385" opacity="1.000000" stroke="none" 
	d="
M209.129669,417.111511 
	C211.544968,417.111511 213.496979,417.111511 215.726227,417.111511 
	C215.726227,421.176758 215.726227,424.869934 215.726227,428.793274 
	C212.031418,428.793274 208.466751,428.793274 204.589600,428.793274 
	C204.589600,425.129547 204.589600,421.562195 204.589600,417.449982 
	C205.872574,417.343475 207.269470,417.227509 209.129669,417.111511 
z"/>
<path fill="#2D5394" opacity="1.000000" stroke="none" 
	d="
M108.527054,336.436157 
	C105.134727,336.486145 102.185295,336.486145 98.819824,336.486145 
	C98.819824,332.687927 98.819824,329.180634 98.819824,325.325378 
	C102.282104,325.325378 105.813805,325.325378 110.336960,325.325378 
	C109.882759,329.000366 109.426353,332.693268 108.527054,336.436157 
z"/>
<path fill="#2D4385" opacity="1.000000" stroke="none" 
	d="
M261.784485,412.249329 
	C259.383301,412.249207 257.419556,412.249207 255.223022,412.249207 
	C255.223022,408.516785 255.223022,405.111237 255.223022,401.342499 
	C258.800690,401.342499 262.478424,401.342499 266.450745,401.342499 
	C266.450745,404.757263 266.450745,408.153870 266.450745,411.981232 
	C265.070282,412.068787 263.646118,412.159119 261.784485,412.249329 
z"/>
<path fill="#2D4385" opacity="1.000000" stroke="none" 
	d="
M239.485458,446.325012 
	C238.559311,442.694702 238.073227,439.103180 237.546753,435.213318 
	C241.958191,435.213318 245.524780,435.213318 249.341888,435.213318 
	C249.341888,438.857513 249.341888,442.286224 249.341888,446.363800 
	C246.135452,446.363800 243.030487,446.363800 239.485458,446.325012 
z"/>
<path fill="#273E82" opacity="1.000000" stroke="none" 
	d="
M292.600372,411.681396 
	C288.709564,412.048584 285.128326,412.048584 281.338226,412.048584 
	C281.338226,408.255280 281.338226,404.871887 281.338226,401.242126 
	C285.131683,401.242126 288.711151,401.242126 292.909943,401.242126 
	C292.909943,404.533081 292.909943,407.923676 292.600372,411.681396 
z"/>
<path fill="#273E82" opacity="1.000000" stroke="none" 
	d="
M192.849060,438.843475 
	C191.910370,440.255859 191.066971,441.869629 190.016632,442.017944 
	C187.281082,442.404297 184.454758,442.147949 181.330414,442.147949 
	C181.330414,438.456360 181.330414,434.952209 181.330414,431.216797 
	C184.984314,431.216797 188.554947,431.216797 192.850082,431.216797 
	C192.850082,433.583405 192.850082,435.980255 192.849060,438.843475 
z"/>
<path fill="#2D4385" opacity="1.000000" stroke="none" 
	d="
M166.011444,409.822357 
	C162.643707,411.123260 159.281555,411.952179 155.335602,412.925049 
	C155.335602,408.162720 155.335602,404.470276 155.335602,400.537964 
	C158.761276,400.537964 162.028275,400.537964 166.017014,400.537964 
	C166.017014,403.507172 166.017014,406.428772 166.011444,409.822357 
z"/>
<path fill="#253C80" opacity="1.000000" stroke="none" 
	d="
M163.999451,428.044281 
	C163.999481,430.171906 163.999481,431.821747 163.999481,433.819916 
	C160.058945,433.819916 156.335999,433.819916 152.303619,433.819916 
	C152.303619,430.496399 152.303619,427.078827 152.303619,423.326172 
	C155.936951,423.326172 159.667175,423.326172 163.754196,423.326172 
	C163.833130,424.690826 163.916275,426.128662 163.999451,428.044281 
z"/>
<path fill="#2D4385" opacity="1.000000" stroke="none" 
	d="
M218.700073,448.016815 
	C215.628937,448.018250 213.018723,448.018250 210.199158,448.018250 
	C210.199158,444.182526 210.199158,440.787781 210.199158,437.162903 
	C213.963760,437.162903 217.520142,437.162903 221.557068,437.162903 
	C221.557068,440.175751 221.738388,442.980469 221.447098,445.735260 
	C221.359192,446.566589 219.959717,447.259216 218.700073,448.016815 
z"/>
<path fill="#273E82" opacity="1.000000" stroke="none" 
	d="
M103.083954,377.995239 
	C105.839699,377.995209 108.123688,377.995209 110.640488,377.995209 
	C110.640488,381.714905 110.640488,384.980957 110.640488,388.639374 
	C106.993950,388.639374 103.288315,388.639374 99.555290,388.639374 
	C97.980553,380.103546 98.442253,378.472778 103.083954,377.995239 
z"/>
<path fill="#2D4385" opacity="1.000000" stroke="none" 
	d="
M136.002899,386.018250 
	C134.222839,386.018219 132.915131,386.018219 131.295120,386.018219 
	C131.295120,382.385101 131.295120,378.991882 131.295120,375.286560 
	C134.812042,375.286560 138.389603,375.286560 142.308350,375.286560 
	C142.308350,378.619110 142.308350,382.009766 142.308350,386.018280 
	C140.330429,386.018280 138.402832,386.018280 136.002899,386.018250 
z"/>
<path fill="#2C4D8F" opacity="1.000000" stroke="none" 
	d="
M93.006454,363.919312 
	C93.412308,367.073700 92.514252,368.330597 89.565269,368.058472 
	C86.955971,367.817688 84.306885,368.007996 81.336021,368.007996 
	C81.336021,364.432159 81.336021,361.053894 81.336021,357.333496 
	C84.915916,357.333496 88.625740,357.333496 93.006134,357.333496 
	C93.006134,359.292664 93.006134,361.368683 93.006454,363.919312 
z"/>
<path fill="#2D4385" opacity="1.000000" stroke="none" 
	d="
M115.404449,362.560242 
	C114.475716,358.877563 113.997330,355.246765 113.472054,351.260071 
	C117.644592,351.260071 121.050217,351.260071 124.740219,351.260071 
	C124.740219,354.872162 124.740219,358.452606 124.740219,362.612061 
	C121.750999,362.612061 118.802895,362.612061 115.404449,362.560242 
z"/>
<path fill="#2C4D8F" opacity="1.000000" stroke="none" 
	d="
M75.110245,339.922729 
	C72.456627,340.106750 70.699356,339.980591 70.947784,336.928558 
	C71.173080,334.160767 70.995415,331.360168 70.995415,328.322235 
	C74.806816,328.322235 78.198311,328.322235 81.859299,328.322235 
	C81.859299,332.080994 81.859299,335.666901 81.859299,339.922882 
	C79.764862,339.922882 77.672508,339.922882 75.110245,339.922729 
z"/>
<path fill="#2C4D8F" opacity="1.000000" stroke="none" 
	d="
M73.999985,308.810547 
	C72.209526,309.858948 70.460365,310.670105 68.630859,310.943359 
	C66.698181,311.232056 64.688919,311.008087 62.392487,311.008087 
	C62.392487,307.341980 62.392487,303.957306 62.392487,300.281433 
	C66.035645,300.281433 69.634933,300.281433 74.005959,300.281433 
	C74.005959,302.849731 74.005959,305.593231 73.999985,308.810547 
z"/>
<path fill="#253C80" opacity="1.000000" stroke="none" 
	d="
M317.776794,400.982910 
	C318.589233,404.524811 318.929352,408.014862 319.295593,411.773041 
	C315.195526,411.773041 311.803497,411.773041 308.106964,411.773041 
	C308.106964,408.308502 308.106964,404.931854 308.106964,400.931030 
	C311.147736,400.931030 314.226105,400.931030 317.776794,400.982910 
z"/>
<path fill="#253C80" opacity="1.000000" stroke="none" 
	d="
M168.625122,388.615356 
	C164.993286,388.943268 161.710632,388.943268 158.220505,388.943268 
	C158.220505,385.337433 158.220505,382.056458 158.220505,378.385559 
	C161.613144,378.385559 165.131241,378.385559 168.974304,378.385559 
	C168.974304,381.723206 168.974304,385.005310 168.625122,388.615356 
z"/>
<path fill="#253C80" opacity="1.000000" stroke="none" 
	d="
M136.554810,412.572510 
	C132.916031,412.902405 129.619583,412.902405 125.974884,412.902405 
	C125.974884,409.349091 125.974884,405.970032 125.974884,402.290741 
	C129.454742,402.290741 133.006012,402.290741 136.897141,402.290741 
	C136.897141,405.693970 136.897141,408.968323 136.554810,412.572510 
z"/>
<path fill="#253C80" opacity="1.000000" stroke="none" 
	d="
M263.000488,434.974670 
	C263.000458,432.859497 263.000458,431.218994 263.000458,429.290680 
	C266.687164,429.290680 270.099152,429.290680 273.849426,429.290680 
	C273.849426,432.649475 273.849426,436.040009 273.849426,439.718414 
	C270.451355,439.718414 267.031921,439.718414 263.251099,439.718414 
	C263.169220,438.323547 263.084839,436.886414 263.000488,434.974670 
z"/>
<path fill="#253C80" opacity="1.000000" stroke="none" 
	d="
M296.565613,420.439301 
	C296.899292,424.052673 296.899292,427.327667 296.899292,430.826904 
	C293.188385,430.826904 289.784424,430.826904 286.042114,430.826904 
	C286.042114,427.384521 286.042114,423.999359 286.042114,420.100891 
	C289.381470,420.100891 292.806671,420.100891 296.565613,420.439301 
z"/>
<path fill="#253C80" opacity="1.000000" stroke="none" 
	d="
M241.183655,416.007935 
	C244.274597,416.002747 246.891373,416.002747 249.747467,416.002747 
	C249.747467,419.743103 249.747467,423.125397 249.747467,426.755402 
	C246.238327,426.755402 242.854065,426.755402 238.191452,426.755402 
	C239.088394,422.928894 239.898926,419.471008 241.183655,416.007935 
z"/>
<path fill="#030303" opacity="1.000000" stroke="none" 
	d="
M89.555901,406.383148 
	C90.181473,406.527710 90.640434,406.990479 91.009308,407.790100 
	C90.409241,407.651733 89.899261,407.176544 89.555901,406.383148 
z"/>
<path fill="#030303" opacity="1.000000" stroke="none" 
	d="
M87.610611,403.449219 
	C88.134926,403.560791 88.575706,403.999908 88.977295,404.782776 
	C88.467751,404.676605 87.997414,404.226685 87.610611,403.449219 
z"/>
<path fill="#030303" opacity="1.000000" stroke="none" 
	d="
M88.949127,405.343933 
	C89.184547,405.224670 89.470352,405.438324 89.841370,405.922668 
	C89.617561,406.021179 89.308533,405.848999 88.949127,405.343933 
z"/>
<path fill="#030303" opacity="1.000000" stroke="none" 
	d="
M87.091476,402.344482 
	C87.499344,402.143341 87.722801,402.369537 87.863297,402.950928 
	C87.601067,403.017548 87.309982,402.839417 87.091476,402.344482 
z"/>
<path fill="#FBFDFE" opacity="1.000000" stroke="none" 
	d="
M110.978867,429.058319 
	C108.655334,426.618958 106.331795,424.179596 103.966049,421.405640 
	C106.551147,423.163910 109.178459,425.256805 111.701477,427.780396 
	C111.391075,428.493469 111.184967,428.775879 110.978867,429.058319 
z"/>
<path fill="#FFFFFF" opacity="1.000000" stroke="none" 
	d="
M111.102272,429.377441 
	C111.184967,428.775879 111.391075,428.493469 111.834251,428.091187 
	C114.048668,429.799103 116.026024,431.626862 117.985352,433.802368 
	C115.720108,432.665558 113.472893,431.181061 111.102272,429.377441 
z"/>
<path fill="#FBFDFE" opacity="1.000000" stroke="none" 
	d="
M100.255707,416.809448 
	C99.427628,416.568085 98.910820,416.057434 98.641365,415.256256 
	C99.448135,415.490509 100.007553,416.015350 100.255707,416.809448 
z"/>
<path fill="#FBFDFE" opacity="1.000000" stroke="none" 
	d="
M101.192169,417.678986 
	C100.668236,417.916473 100.361511,417.735382 99.978790,417.289368 
	C100.404976,417.103088 100.907173,417.181732 101.192169,417.678986 
z"/>
<path fill="#FBFDFE" opacity="1.000000" stroke="none" 
	d="
M102.192574,418.678101 
	C101.668930,418.916321 101.361916,418.735657 100.978668,418.290009 
	C101.404701,418.103119 101.906952,418.181183 102.192574,418.678101 
z"/>
<path fill="#FBFDFE" opacity="1.000000" stroke="none" 
	d="
M103.186371,419.679260 
	C102.668526,419.917145 102.361397,419.736969 101.978683,419.290466 
	C102.401093,419.103149 102.899086,419.182159 103.186371,419.679260 
z"/>
<path fill="#FBFDFE" opacity="1.000000" stroke="none" 
	d="
M104.179604,420.687683 
	C103.653091,420.927124 103.346222,420.753143 102.971024,420.301453 
	C103.401543,420.107300 103.900398,420.190826 104.179604,420.687683 
z"/>
<path fill="#FBFDFE" opacity="1.000000" stroke="none" 
	d="
M98.966019,414.789490 
	C98.628845,414.999237 98.235107,414.883606 97.775528,414.384735 
	C98.109604,414.155701 98.509529,414.309906 98.966019,414.789490 
z"/>
<path fill="#FFFFFF" opacity="1.000000" stroke="none" 
	d="
M267.348938,325.992004 
	C265.928619,324.911163 264.269989,323.908661 264.143585,322.740356 
	C263.772858,319.313995 264.011566,315.821716 264.011566,311.905975 
	C267.988983,311.905975 271.616730,312.115845 275.208069,311.844147 
	C278.483795,311.596283 279.677582,313.160919 279.936218,316.041199 
	C279.951080,316.206787 279.934570,316.375183 279.949066,316.540833 
	C280.764740,325.883453 280.662140,325.996002 271.310730,325.995239 
	C270.144073,325.995148 268.977417,325.994812 267.348938,325.992004 
z"/>
<path fill="#FFFFFF" opacity="1.000000" stroke="none" 
	d="
M241.994629,347.802551 
	C241.052902,349.500977 240.245819,351.653015 239.145157,351.815430 
	C235.899155,352.294373 232.503311,352.252930 229.237991,351.842773 
	C228.062592,351.695129 226.563187,350.090912 226.157944,348.843933 
	C225.621017,347.191803 226.173309,345.219940 225.970886,343.417664 
	C225.566376,339.816437 227.196457,338.581787 230.579208,338.987030 
	C231.560150,339.104584 232.567139,339.004913 233.562180,339.004944 
	C241.994781,339.005249 241.994781,339.005280 241.994629,347.802551 
z"/>
<path fill="#FFFFFF" opacity="1.000000" stroke="none" 
	d="
M233.880600,325.243408 
	C231.448120,325.244629 229.489395,325.244629 227.241714,325.244629 
	C227.241714,320.005219 227.241714,315.284210 227.241714,310.280579 
	C231.432526,310.280579 235.353714,310.280579 239.989944,310.280579 
	C239.989944,314.239594 240.079514,318.169891 239.964966,322.094208 
	C239.848068,326.099152 236.552307,324.765076 233.880600,325.243408 
z"/>
<path fill="#FBFDFE" opacity="1.000000" stroke="none" 
	d="
M351.705536,68.656311 
	C351.513153,69.609901 351.317291,71.094772 350.470978,71.864059 
	C347.901184,74.199898 345.079834,76.259003 342.176514,78.706299 
	C336.085083,83.758965 330.173584,88.531212 324.116638,93.601898 
	C317.690918,99.710922 311.410583,105.521507 304.981567,111.636566 
	C299.611816,117.741890 294.390778,123.542747 289.031372,129.653503 
	C284.527893,136.030701 280.162811,142.098022 275.674438,148.501617 
	C272.345490,154.228607 269.139862,159.619324 265.554688,165.091110 
	C265.019836,165.027771 264.864502,164.883331 264.709167,164.738907 
	C266.773010,158.404770 268.836853,152.070633 270.923004,145.369232 
	C277.103363,133.758652 283.269501,122.520973 292.957458,113.333145 
	C305.073517,103.602554 317.045013,94.176765 329.266571,84.493591 
	C336.812622,79.110939 344.108643,73.985664 351.705536,68.656311 
z"/>
<path fill="#FBFDFE" opacity="1.000000" stroke="none" 
	d="
M355.850098,67.567398 
	C354.805725,68.116882 353.947449,68.386971 352.769653,68.328659 
	C354.352051,66.618935 356.253906,65.237610 358.155792,63.856285 
	C358.348572,64.054123 358.541351,64.251961 358.734100,64.449806 
	C357.834808,65.395866 356.935516,66.341927 355.850098,67.567398 
z"/>
<path fill="#FBFDFE" opacity="1.000000" stroke="none" 
	d="
M265.393494,165.403610 
	C265.267822,166.285233 264.923828,166.935425 264.228088,168.250397 
	C264.228088,166.756958 264.228088,165.968506 264.468628,164.959473 
	C264.864502,164.883331 265.019836,165.027771 265.393494,165.403610 
z"/>
<path fill="#FBFDFE" opacity="1.000000" stroke="none" 
	d="
M148.779266,80.899086 
	C149.346710,81.011940 149.687180,81.222176 150.031097,81.734482 
	C149.482147,81.902985 148.929749,81.769424 148.229370,81.390656 
	C148.081390,81.145439 148.552322,80.996475 148.779266,80.899086 
z"/>
<path fill="#FBFDFE" opacity="1.000000" stroke="none" 
	d="
M218.712601,132.835678 
	C223.135513,139.406204 227.278046,145.793716 231.672241,152.363220 
	C234.972015,159.741180 238.020111,166.937134 240.912216,174.665375 
	C240.756226,175.197693 240.409622,175.516159 240.409622,175.516159 
	C237.876038,171.433990 235.342438,167.351837 232.523590,163.093079 
	C228.710724,157.673248 225.183090,152.430008 221.348511,147.035690 
	C217.264755,142.005600 213.487915,137.126587 209.410492,132.105103 
	C204.952957,127.369637 200.796021,122.776619 196.336304,118.035065 
	C191.579285,113.667747 187.125031,109.448975 182.362000,105.106644 
	C175.928833,100.365425 169.804413,95.747765 163.355499,91.007645 
	C159.416702,88.466080 155.802429,86.046982 152.071960,83.302658 
	C157.226486,85.340973 162.497223,87.704498 168.071213,90.181679 
	C174.882370,94.550819 181.390244,98.806313 188.214294,103.140274 
	C193.803940,107.753265 199.077438,112.287781 204.655655,116.967705 
	C209.450989,122.292961 213.941620,127.472801 218.712601,132.835678 
z"/>
<path fill="#FBFDFE" opacity="1.000000" stroke="none" 
	d="
M240.937531,175.047638 
	C241.293579,175.515808 241.468307,176.134033 241.643036,176.752243 
	C241.341797,176.505646 241.040543,176.259048 240.574463,175.764313 
	C240.409622,175.516159 240.756226,175.197693 240.937531,175.047638 
z"/>
<path fill="#FBFDFE" opacity="1.000000" stroke="none" 
	d="
M150.081543,82.270966 
	C150.620956,82.095901 151.287231,82.217278 151.995453,82.686371 
	C151.427734,82.878525 150.818069,82.722961 150.081543,82.270966 
z"/>
</svg>